<?xml version="1.0"?>
<svg xmlns="http://www.w3.org/2000/svg" viewBox="0 0 2200 1100" font-family="Inter, system-ui, -apple-system, sans-serif">
  <defs>
    <filter id="cardShadow" x="-4%" y="-4%" width="108%" height="116%">
      <feDropShadow dx="0" dy="2" stdDeviation="6" flood-color="#1a1a18" flood-opacity="0.10"></feDropShadow>
    </filter>
    <filter id="cardShadowDark" x="-4%" y="-4%" width="108%" height="116%">
      <feDropShadow dx="0" dy="3" stdDeviation="8" flood-color="#1a1a18" flood-opacity="0.22"></feDropShadow>
    </filter>
    <linearGradient id="bgGrad" x1="0" y1="0" x2="0" y2="1">
      <stop offset="0%" stop-color="#f5f1ea"></stop><stop offset="100%" stop-color="#ece8e0"></stop>
    </linearGradient>
    <linearGradient id="surfacePrimary" x1="0" y1="0" x2="1" y2="1">
      <stop offset="0%" stop-color="#6573c9"></stop><stop offset="100%" stop-color="#3a4a8a"></stop>
    </linearGradient>
    <linearGradient id="surfaceNeutral" x1="0" y1="0" x2="1" y2="1">
      <stop offset="0%" stop-color="#252521"></stop><stop offset="100%" stop-color="#1a1a18"></stop>
    </linearGradient>
    <linearGradient id="surfaceSql" x1="0" y1="0" x2="1" y2="1">
      <stop offset="0%" stop-color="#1e3f52"></stop><stop offset="100%" stop-color="#162e3e"></stop>
    </linearGradient>
    <linearGradient id="surfaceCache" x1="0" y1="0" x2="1" y2="1">
      <stop offset="0%" stop-color="#7a2a2a"></stop><stop offset="100%" stop-color="#5a1e1e"></stop>
    </linearGradient>
    <linearGradient id="surfaceStore" x1="0" y1="0" x2="1" y2="1">
      <stop offset="0%" stop-color="#5e3f1c"></stop><stop offset="100%" stop-color="#3f2810"></stop>
    </linearGradient>
    <linearGradient id="surfaceSecure" x1="0" y1="0" x2="1" y2="1">
      <stop offset="0%" stop-color="#2a5e40"></stop><stop offset="100%" stop-color="#1e4530"></stop>
    </linearGradient>
    <linearGradient id="surfaceSlate" x1="0" y1="0" x2="1" y2="1">
      <stop offset="0%" stop-color="#4a5568"></stop><stop offset="100%" stop-color="#2d3748"></stop>
    </linearGradient>
    <marker id="arrowAccent" markerWidth="8" markerHeight="8" refX="6" refY="3" orient="auto"><path d="M0,0 L0,6 L8,3 z" fill="#4f5fb8"></path></marker>
    <marker id="arrowAccentSm" markerWidth="7" markerHeight="7" refX="5" refY="3" orient="auto"><path d="M0,0 L0,6 L7,3 z" fill="#4f5fb8"></path></marker>
    <marker id="arrowGrey" markerWidth="8" markerHeight="8" refX="6" refY="3" orient="auto"><path d="M0,0 L0,6 L8,3 z" fill="#9e9b95"></path></marker>
    <marker id="arrowGreyStart" markerWidth="8" markerHeight="8" refX="2" refY="3" orient="auto"><path d="M8,0 L8,6 L0,3 z" fill="#9e9b95"></path></marker>
  </defs>

  <rect width="2200" height="1100" fill="url(#bgGrad)"></rect>

  <text x="1100" y="56" text-anchor="middle" font-size="26" font-weight="600" fill="#1a1a18" letter-spacing="-0.3">OrderFlow · Multi-region Landscape</text>
  <text x="1100" y="82" text-anchor="middle" font-size="13" fill="#706e67">Three regions · one platform · ~120k orders/day · p99 &lt; 1.2 s intake · wide-variant 2200 canvas</text>

  <!-- ============================== REGION COLUMN: us-east-1 (PRIMARY) ============================== -->
  <rect x="50" y="110" width="680" height="700" rx="20" fill="rgba(79,95,184,0.04)" stroke="#9e9b95" stroke-dasharray="6,5" opacity="0.7"></rect>
  <rect x="68" y="100" width="200" height="22" rx="11" fill="#f5f1ea" stroke="#9e9b95"></rect>
  <text x="168" y="115" text-anchor="middle" font-size="10" font-weight="600" fill="#706e67" letter-spacing="1.4">VPC · us-east-1 · PRIMARY</text>
  <text x="710" y="115" text-anchor="end" font-size="10" font-weight="600" fill="#4f5fb8" letter-spacing="1.2">VIRGINIA</text>

  <!-- Surfaces row: web app + iOS app -->
  <text x="80" y="148" font-size="10" font-weight="600" fill="#9e9b95" letter-spacing="1.6">SURFACES</text>
  <rect x="80" y="158" width="310" height="56" rx="10" fill="white" stroke="#e8e2d8" filter="url(#cardShadow)"></rect>
  <rect x="92" y="170" width="32" height="32" rx="6" fill="url(#surfacePrimary)"></rect>
  <text x="108" y="190" text-anchor="middle" font-size="11" font-weight="700" fill="white">W</text>
  <text x="134" y="180" font-size="13" font-weight="600" fill="#1a1a18">Web app</text>
  <text x="134" y="198" font-size="10" fill="#4a4845">React SPA · 2.4M MAU</text>

  <rect x="400" y="158" width="310" height="56" rx="10" fill="white" stroke="#e8e2d8" filter="url(#cardShadow)"></rect>
  <rect x="412" y="170" width="32" height="32" rx="6" fill="url(#surfacePrimary)"></rect>
  <text x="428" y="190" text-anchor="middle" font-size="11" font-weight="700" fill="white">iOS</text>
  <text x="454" y="180" font-size="13" font-weight="600" fill="#1a1a18">iOS app</text>
  <text x="454" y="198" font-size="10" fill="#4a4845">native · 720k installs</text>

  <!-- API Gateway -->
  <text x="80" y="240" font-size="10" font-weight="600" fill="#9e9b95" letter-spacing="1.6">API GATEWAY</text>
  <rect x="80" y="250" width="630" height="62" rx="12" fill="url(#surfacePrimary)" filter="url(#cardShadowDark)"></rect>
  <g transform="translate(112, 281)"><path d="M-12,8 L-12,-2 Q-12,-10 0,-12 Q12,-10 12,-2 L12,8 Z" fill="rgba(255,255,255,0.18)"></path><line x1="0" y1="-8" x2="0" y2="8" stroke="rgba(255,255,255,0.9)" stroke-width="1.4"></line><line x1="-12" y1="0" x2="12" y2="0" stroke="rgba(255,255,255,0.9)" stroke-width="1.4"></line></g>
  <text x="146" y="276" font-size="14" font-weight="600" fill="white">Order API · ALB ingress</text>
  <text x="146" y="296" font-size="10" fill="rgba(255,255,255,0.78)">REST · OIDC · idempotency-key dedup · p99 &lt; 1.2 s</text>
  <circle cx="694" cy="266" r="5" fill="#5aad80" class="anim-pulse"></circle>

  <!-- Services grid (2x2) -->
  <text x="80" y="338" font-size="10" font-weight="600" fill="#9e9b95" letter-spacing="1.6">SERVICES · ECS FARGATE</text>
  <rect x="80" y="348" width="310" height="62" rx="10" fill="url(#surfaceNeutral)" filter="url(#cardShadowDark)"></rect>
  <text x="96" y="372" font-size="13" font-weight="600" fill="white">Order Service</text>
  <text x="96" y="390" font-size="10" fill="rgba(255,255,255,0.7)">lifecycle orchestrator</text>
  <text x="96" y="404" font-size="9" font-family="monospace" fill="rgba(255,255,255,0.5)">order-svc · 8 replicas</text>

  <rect x="400" y="348" width="310" height="62" rx="10" fill="url(#surfaceNeutral)" filter="url(#cardShadowDark)"></rect>
  <text x="416" y="372" font-size="13" font-weight="600" fill="white">Inventory Service</text>
  <text x="416" y="390" font-size="10" fill="rgba(255,255,255,0.7)">stock holds + counts</text>
  <text x="416" y="404" font-size="9" font-family="monospace" fill="rgba(255,255,255,0.5)">inventory-svc · 6 replicas</text>

  <rect x="80" y="420" width="310" height="62" rx="10" fill="url(#surfaceNeutral)" filter="url(#cardShadowDark)"></rect>
  <text x="96" y="444" font-size="13" font-weight="600" fill="white">Payment Service</text>
  <text x="96" y="462" font-size="10" fill="rgba(255,255,255,0.7)">auth + capture · Stripe</text>
  <text x="96" y="476" font-size="9" font-family="monospace" fill="rgba(255,255,255,0.5)">payment-svc · 4 replicas</text>

  <rect x="400" y="420" width="310" height="62" rx="10" fill="url(#surfaceNeutral)" filter="url(#cardShadowDark)"></rect>
  <text x="416" y="444" font-size="13" font-weight="600" fill="white">Notification Svc</text>
  <text x="416" y="462" font-size="10" fill="rgba(255,255,255,0.7)">email · SMS · push</text>
  <text x="416" y="476" font-size="9" font-family="monospace" fill="rgba(255,255,255,0.5)">notification-svc · 3 replicas</text>

  <!-- Data tier -->
  <text x="80" y="510" font-size="10" font-weight="600" fill="#9e9b95" letter-spacing="1.6">DATA TIER</text>
  <rect x="80" y="520" width="200" height="76" rx="10" fill="url(#surfaceSql)" filter="url(#cardShadowDark)"></rect>
  <g transform="translate(106, 558)"><ellipse cx="0" cy="-10" rx="11" ry="3.5" fill="rgba(255,255,255,0.85)"></ellipse><rect x="-11" y="-10" width="22" height="20" fill="rgba(255,255,255,0.85)"></rect><ellipse cx="0" cy="10" rx="11" ry="3.5" fill="rgba(255,255,255,0.85)"></ellipse></g>
  <text x="138" y="544" font-size="13" font-weight="600" fill="white">RDS Postgres</text>
  <text x="138" y="562" font-size="10" fill="rgba(255,255,255,0.72)">orders · primary writer</text>
  <text x="138" y="580" font-size="9" font-family="monospace" fill="rgba(255,255,255,0.55)">db.r6g.4xl · 2 AZ</text>

  <rect x="290" y="520" width="200" height="76" rx="10" fill="url(#surfaceCache)" filter="url(#cardShadowDark)"></rect>
  <g transform="translate(316, 558)"><rect x="-11" y="-10" width="22" height="20" rx="3" fill="rgba(255,255,255,0.85)"></rect><line x1="-7" y1="-4" x2="7" y2="-4" stroke="#5a1e1e" stroke-width="1.4"></line><line x1="-7" y1="0" x2="7" y2="0" stroke="#5a1e1e" stroke-width="1.4"></line><line x1="-7" y1="4" x2="7" y2="4" stroke="#5a1e1e" stroke-width="1.4"></line></g>
  <text x="348" y="544" font-size="13" font-weight="600" fill="white">ElastiCache</text>
  <text x="348" y="562" font-size="10" fill="rgba(255,255,255,0.72)">Redis · session + cart</text>
  <text x="348" y="580" font-size="9" font-family="monospace" fill="rgba(255,255,255,0.55)">cache.r6g.xl</text>

  <rect x="500" y="520" width="210" height="76" rx="10" fill="url(#surfaceStore)" filter="url(#cardShadowDark)"></rect>
  <g transform="translate(528, 558)"><path d="M-11,-3 L-9,10 L9,10 L11,-3 Z" fill="rgba(255,255,255,0.85)"></path><ellipse cx="0" cy="-3" rx="11" ry="3.5" fill="rgba(255,255,255,0.85)"></ellipse><path d="M-5,-5 Q0,-13 5,-5" stroke="rgba(255,255,255,0.85)" stroke-width="2.2" fill="none"></path></g>
  <text x="560" y="544" font-size="13" font-weight="600" fill="white">S3 artifacts</text>
  <text x="560" y="562" font-size="10" fill="rgba(255,255,255,0.72)">receipts · invoices · CMEK</text>
  <text x="560" y="580" font-size="9" font-family="monospace" fill="rgba(255,255,255,0.55)">orderflow-us-prod</text>

  <text x="80" y="630" font-size="10" font-style="italic" fill="#706e67">Primary writer · global read fan-out to eu-west-1 + ap-south-1 (async).</text>

  <!-- region stats footer pills -->
  <g transform="translate(80, 656)" font-size="10">
    <rect x="0" y="0" width="140" height="24" rx="12" fill="#f5f1ea" stroke="#ddd5c6"></rect>
    <text x="70" y="16" text-anchor="middle" font-weight="600" fill="#4a4845">~80k orders/day</text>
    <rect x="152" y="0" width="120" height="24" rx="12" fill="#f5f1ea" stroke="#ddd5c6"></rect>
    <text x="212" y="16" text-anchor="middle" font-weight="600" fill="#4a4845">99.97% uptime</text>
    <rect x="284" y="0" width="100" height="24" rx="12" fill="#f5f1ea" stroke="#ddd5c6"></rect>
    <text x="334" y="16" text-anchor="middle" font-weight="600" fill="#4a4845">primary</text>
  </g>

  <!-- ============================== REGION COLUMN: eu-west-1 (GDPR) ============================== -->
  <rect x="760" y="110" width="680" height="700" rx="20" fill="rgba(0,0,0,0.025)" stroke="#9e9b95" stroke-dasharray="6,5" opacity="0.7"></rect>
  <rect x="778" y="100" width="200" height="22" rx="11" fill="#f5f1ea" stroke="#9e9b95"></rect>
  <text x="878" y="115" text-anchor="middle" font-size="10" font-weight="600" fill="#706e67" letter-spacing="1.4">VPC · eu-west-1 · GDPR</text>
  <text x="1420" y="115" text-anchor="end" font-size="10" font-weight="600" fill="#706e67" letter-spacing="1.2">IRELAND</text>

  <text x="790" y="148" font-size="10" font-weight="600" fill="#9e9b95" letter-spacing="1.6">SURFACES</text>
  <rect x="790" y="158" width="310" height="56" rx="10" fill="white" stroke="#e8e2d8" filter="url(#cardShadow)"></rect>
  <rect x="802" y="170" width="32" height="32" rx="6" fill="url(#surfacePrimary)"></rect>
  <text x="818" y="190" text-anchor="middle" font-size="11" font-weight="700" fill="white">W</text>
  <text x="844" y="180" font-size="13" font-weight="600" fill="#1a1a18">Web app</text>
  <text x="844" y="198" font-size="10" fill="#4a4845">EU edge · 920k MAU</text>

  <rect x="1110" y="158" width="310" height="56" rx="10" fill="white" stroke="#e8e2d8" filter="url(#cardShadow)"></rect>
  <rect x="1122" y="170" width="32" height="32" rx="6" fill="url(#surfacePrimary)"></rect>
  <text x="1138" y="190" text-anchor="middle" font-size="11" font-weight="700" fill="white">iOS</text>
  <text x="1164" y="180" font-size="13" font-weight="600" fill="#1a1a18">iOS app</text>
  <text x="1164" y="198" font-size="10" fill="#4a4845">native · 240k installs</text>

  <text x="790" y="240" font-size="10" font-weight="600" fill="#9e9b95" letter-spacing="1.6">API GATEWAY</text>
  <rect x="790" y="250" width="630" height="62" rx="12" fill="url(#surfacePrimary)" filter="url(#cardShadowDark)"></rect>
  <g transform="translate(822, 281)"><path d="M-12,8 L-12,-2 Q-12,-10 0,-12 Q12,-10 12,-2 L12,8 Z" fill="rgba(255,255,255,0.18)"></path><line x1="0" y1="-8" x2="0" y2="8" stroke="rgba(255,255,255,0.9)" stroke-width="1.4"></line><line x1="-12" y1="0" x2="12" y2="0" stroke="rgba(255,255,255,0.9)" stroke-width="1.4"></line></g>
  <text x="856" y="276" font-size="14" font-weight="600" fill="white">Order API · ALB ingress</text>
  <text x="856" y="296" font-size="10" fill="rgba(255,255,255,0.78)">REST · GDPR · data residency = EU only</text>
  <circle cx="1404" cy="266" r="5" fill="#5aad80" class="anim-pulse"></circle>

  <text x="790" y="338" font-size="10" font-weight="600" fill="#9e9b95" letter-spacing="1.6">SERVICES · ECS FARGATE</text>
  <rect x="790" y="348" width="310" height="62" rx="10" fill="url(#surfaceNeutral)" filter="url(#cardShadowDark)"></rect>
  <text x="806" y="372" font-size="13" font-weight="600" fill="white">Order Service</text>
  <text x="806" y="390" font-size="10" fill="rgba(255,255,255,0.7)">lifecycle orchestrator</text>
  <text x="806" y="404" font-size="9" font-family="monospace" fill="rgba(255,255,255,0.5)">order-svc · 4 replicas</text>

  <rect x="1110" y="348" width="310" height="62" rx="10" fill="url(#surfaceNeutral)" filter="url(#cardShadowDark)"></rect>
  <text x="1126" y="372" font-size="13" font-weight="600" fill="white">Inventory Service</text>
  <text x="1126" y="390" font-size="10" fill="rgba(255,255,255,0.7)">stock holds + counts</text>
  <text x="1126" y="404" font-size="9" font-family="monospace" fill="rgba(255,255,255,0.5)">inventory-svc · 3 replicas</text>

  <rect x="790" y="420" width="310" height="62" rx="10" fill="url(#surfaceNeutral)" filter="url(#cardShadowDark)"></rect>
  <text x="806" y="444" font-size="13" font-weight="600" fill="white">Payment Service</text>
  <text x="806" y="462" font-size="10" fill="rgba(255,255,255,0.7)">auth + capture · Stripe EU</text>
  <text x="806" y="476" font-size="9" font-family="monospace" fill="rgba(255,255,255,0.5)">payment-svc · 3 replicas</text>

  <rect x="1110" y="420" width="310" height="62" rx="10" fill="url(#surfaceNeutral)" filter="url(#cardShadowDark)"></rect>
  <text x="1126" y="444" font-size="13" font-weight="600" fill="white">Notification Svc</text>
  <text x="1126" y="462" font-size="10" fill="rgba(255,255,255,0.7)">email · SMS · push</text>
  <text x="1126" y="476" font-size="9" font-family="monospace" fill="rgba(255,255,255,0.5)">notification-svc · 2 replicas</text>

  <text x="790" y="510" font-size="10" font-weight="600" fill="#9e9b95" letter-spacing="1.6">DATA TIER</text>
  <rect x="790" y="520" width="200" height="76" rx="10" fill="url(#surfaceSql)" filter="url(#cardShadowDark)"></rect>
  <g transform="translate(816, 558)"><ellipse cx="0" cy="-10" rx="11" ry="3.5" fill="rgba(255,255,255,0.85)"></ellipse><rect x="-11" y="-10" width="22" height="20" fill="rgba(255,255,255,0.85)"></rect><ellipse cx="0" cy="10" rx="11" ry="3.5" fill="rgba(255,255,255,0.85)"></ellipse></g>
  <text x="848" y="544" font-size="13" font-weight="600" fill="white">RDS Postgres</text>
  <text x="848" y="562" font-size="10" fill="rgba(255,255,255,0.72)">read replica · async</text>
  <text x="848" y="580" font-size="9" font-family="monospace" fill="rgba(255,255,255,0.55)">db.r6g.2xl · 2 AZ</text>

  <rect x="1000" y="520" width="200" height="76" rx="10" fill="url(#surfaceCache)" filter="url(#cardShadowDark)"></rect>
  <g transform="translate(1026, 558)"><rect x="-11" y="-10" width="22" height="20" rx="3" fill="rgba(255,255,255,0.85)"></rect><line x1="-7" y1="-4" x2="7" y2="-4" stroke="#5a1e1e" stroke-width="1.4"></line><line x1="-7" y1="0" x2="7" y2="0" stroke="#5a1e1e" stroke-width="1.4"></line><line x1="-7" y1="4" x2="7" y2="4" stroke="#5a1e1e" stroke-width="1.4"></line></g>
  <text x="1058" y="544" font-size="13" font-weight="600" fill="white">ElastiCache</text>
  <text x="1058" y="562" font-size="10" fill="rgba(255,255,255,0.72)">Redis · session + cart</text>
  <text x="1058" y="580" font-size="9" font-family="monospace" fill="rgba(255,255,255,0.55)">cache.r6g.large</text>

  <rect x="1210" y="520" width="210" height="76" rx="10" fill="url(#surfaceStore)" filter="url(#cardShadowDark)"></rect>
  <g transform="translate(1238, 558)"><path d="M-11,-3 L-9,10 L9,10 L11,-3 Z" fill="rgba(255,255,255,0.85)"></path><ellipse cx="0" cy="-3" rx="11" ry="3.5" fill="rgba(255,255,255,0.85)"></ellipse><path d="M-5,-5 Q0,-13 5,-5" stroke="rgba(255,255,255,0.85)" stroke-width="2.2" fill="none"></path></g>
  <text x="1270" y="544" font-size="13" font-weight="600" fill="white">S3 artifacts</text>
  <text x="1270" y="562" font-size="10" fill="rgba(255,255,255,0.72)">receipts · CMEK · EU keys</text>
  <text x="1270" y="580" font-size="9" font-family="monospace" fill="rgba(255,255,255,0.55)">orderflow-eu-prod</text>

  <text x="790" y="630" font-size="10" font-style="italic" fill="#706e67">Read replica of us-east-1 · GDPR-locked · writes failover only.</text>

  <g transform="translate(790, 656)" font-size="10">
    <rect x="0" y="0" width="140" height="24" rx="12" fill="#f5f1ea" stroke="#ddd5c6"></rect>
    <text x="70" y="16" text-anchor="middle" font-weight="600" fill="#4a4845">~28k orders/day</text>
    <rect x="152" y="0" width="120" height="24" rx="12" fill="#f5f1ea" stroke="#ddd5c6"></rect>
    <text x="212" y="16" text-anchor="middle" font-weight="600" fill="#4a4845">99.94% uptime</text>
    <rect x="284" y="0" width="100" height="24" rx="12" fill="#f5f1ea" stroke="#ddd5c6"></rect>
    <text x="334" y="16" text-anchor="middle" font-weight="600" fill="#4a4845">GDPR</text>
  </g>

  <!-- ============================== REGION COLUMN: ap-south-1 ============================== -->
  <rect x="1470" y="110" width="680" height="700" rx="20" fill="rgba(0,0,0,0.025)" stroke="#9e9b95" stroke-dasharray="6,5" opacity="0.7"></rect>
  <rect x="1488" y="100" width="200" height="22" rx="11" fill="#f5f1ea" stroke="#9e9b95"></rect>
  <text x="1588" y="115" text-anchor="middle" font-size="10" font-weight="600" fill="#706e67" letter-spacing="1.4">VPC · ap-south-1 · APAC</text>
  <text x="2130" y="115" text-anchor="end" font-size="10" font-weight="600" fill="#706e67" letter-spacing="1.2">MUMBAI</text>

  <text x="1500" y="148" font-size="10" font-weight="600" fill="#9e9b95" letter-spacing="1.6">SURFACES</text>
  <rect x="1500" y="158" width="310" height="56" rx="10" fill="white" stroke="#e8e2d8" filter="url(#cardShadow)"></rect>
  <rect x="1512" y="170" width="32" height="32" rx="6" fill="url(#surfacePrimary)"></rect>
  <text x="1528" y="190" text-anchor="middle" font-size="11" font-weight="700" fill="white">W</text>
  <text x="1554" y="180" font-size="13" font-weight="600" fill="#1a1a18">Web app</text>
  <text x="1554" y="198" font-size="10" fill="#4a4845">APAC edge · 480k MAU</text>

  <rect x="1820" y="158" width="310" height="56" rx="10" fill="white" stroke="#e8e2d8" filter="url(#cardShadow)"></rect>
  <rect x="1832" y="170" width="32" height="32" rx="6" fill="url(#surfacePrimary)"></rect>
  <text x="1848" y="190" text-anchor="middle" font-size="11" font-weight="700" fill="white">iOS</text>
  <text x="1874" y="180" font-size="13" font-weight="600" fill="#1a1a18">iOS app</text>
  <text x="1874" y="198" font-size="10" fill="#4a4845">native · 96k installs</text>

  <text x="1500" y="240" font-size="10" font-weight="600" fill="#9e9b95" letter-spacing="1.6">API GATEWAY</text>
  <rect x="1500" y="250" width="630" height="62" rx="12" fill="url(#surfacePrimary)" filter="url(#cardShadowDark)"></rect>
  <g transform="translate(1532, 281)"><path d="M-12,8 L-12,-2 Q-12,-10 0,-12 Q12,-10 12,-2 L12,8 Z" fill="rgba(255,255,255,0.18)"></path><line x1="0" y1="-8" x2="0" y2="8" stroke="rgba(255,255,255,0.9)" stroke-width="1.4"></line><line x1="-12" y1="0" x2="12" y2="0" stroke="rgba(255,255,255,0.9)" stroke-width="1.4"></line></g>
  <text x="1566" y="276" font-size="14" font-weight="600" fill="white">Order API · ALB ingress</text>
  <text x="1566" y="296" font-size="10" fill="rgba(255,255,255,0.78)">REST · low-latency edge · regional writes</text>
  <circle cx="2114" cy="266" r="5" fill="#5aad80" class="anim-pulse"></circle>

  <text x="1500" y="338" font-size="10" font-weight="600" fill="#9e9b95" letter-spacing="1.6">SERVICES · ECS FARGATE</text>
  <rect x="1500" y="348" width="310" height="62" rx="10" fill="url(#surfaceNeutral)" filter="url(#cardShadowDark)"></rect>
  <text x="1516" y="372" font-size="13" font-weight="600" fill="white">Order Service</text>
  <text x="1516" y="390" font-size="10" fill="rgba(255,255,255,0.7)">lifecycle orchestrator</text>
  <text x="1516" y="404" font-size="9" font-family="monospace" fill="rgba(255,255,255,0.5)">order-svc · 3 replicas</text>

  <rect x="1820" y="348" width="310" height="62" rx="10" fill="url(#surfaceNeutral)" filter="url(#cardShadowDark)"></rect>
  <text x="1836" y="372" font-size="13" font-weight="600" fill="white">Inventory Service</text>
  <text x="1836" y="390" font-size="10" fill="rgba(255,255,255,0.7)">stock holds + counts</text>
  <text x="1836" y="404" font-size="9" font-family="monospace" fill="rgba(255,255,255,0.5)">inventory-svc · 2 replicas</text>

  <rect x="1500" y="420" width="310" height="62" rx="10" fill="url(#surfaceNeutral)" filter="url(#cardShadowDark)"></rect>
  <text x="1516" y="444" font-size="13" font-weight="600" fill="white">Payment Service</text>
  <text x="1516" y="462" font-size="10" fill="rgba(255,255,255,0.7)">auth + capture · Stripe APAC</text>
  <text x="1516" y="476" font-size="9" font-family="monospace" fill="rgba(255,255,255,0.5)">payment-svc · 2 replicas</text>

  <rect x="1820" y="420" width="310" height="62" rx="10" fill="url(#surfaceNeutral)" filter="url(#cardShadowDark)"></rect>
  <text x="1836" y="444" font-size="13" font-weight="600" fill="white">Notification Svc</text>
  <text x="1836" y="462" font-size="10" fill="rgba(255,255,255,0.7)">email · SMS · push</text>
  <text x="1836" y="476" font-size="9" font-family="monospace" fill="rgba(255,255,255,0.5)">notification-svc · 2 replicas</text>

  <text x="1500" y="510" font-size="10" font-weight="600" fill="#9e9b95" letter-spacing="1.6">DATA TIER</text>
  <rect x="1500" y="520" width="200" height="76" rx="10" fill="url(#surfaceSql)" filter="url(#cardShadowDark)"></rect>
  <g transform="translate(1526, 558)"><ellipse cx="0" cy="-10" rx="11" ry="3.5" fill="rgba(255,255,255,0.85)"></ellipse><rect x="-11" y="-10" width="22" height="20" fill="rgba(255,255,255,0.85)"></rect><ellipse cx="0" cy="10" rx="11" ry="3.5" fill="rgba(255,255,255,0.85)"></ellipse></g>
  <text x="1558" y="544" font-size="13" font-weight="600" fill="white">RDS Postgres</text>
  <text x="1558" y="562" font-size="10" fill="rgba(255,255,255,0.72)">regional writer</text>
  <text x="1558" y="580" font-size="9" font-family="monospace" fill="rgba(255,255,255,0.55)">db.r6g.xl · 2 AZ</text>

  <rect x="1710" y="520" width="200" height="76" rx="10" fill="url(#surfaceCache)" filter="url(#cardShadowDark)"></rect>
  <g transform="translate(1736, 558)"><rect x="-11" y="-10" width="22" height="20" rx="3" fill="rgba(255,255,255,0.85)"></rect><line x1="-7" y1="-4" x2="7" y2="-4" stroke="#5a1e1e" stroke-width="1.4"></line><line x1="-7" y1="0" x2="7" y2="0" stroke="#5a1e1e" stroke-width="1.4"></line><line x1="-7" y1="4" x2="7" y2="4" stroke="#5a1e1e" stroke-width="1.4"></line></g>
  <text x="1768" y="544" font-size="13" font-weight="600" fill="white">ElastiCache</text>
  <text x="1768" y="562" font-size="10" fill="rgba(255,255,255,0.72)">Redis · session + cart</text>
  <text x="1768" y="580" font-size="9" font-family="monospace" fill="rgba(255,255,255,0.55)">cache.r6g.large</text>

  <rect x="1920" y="520" width="210" height="76" rx="10" fill="url(#surfaceStore)" filter="url(#cardShadowDark)"></rect>
  <g transform="translate(1948, 558)"><path d="M-11,-3 L-9,10 L9,10 L11,-3 Z" fill="rgba(255,255,255,0.85)"></path><ellipse cx="0" cy="-3" rx="11" ry="3.5" fill="rgba(255,255,255,0.85)"></ellipse><path d="M-5,-5 Q0,-13 5,-5" stroke="rgba(255,255,255,0.85)" stroke-width="2.2" fill="none"></path></g>
  <text x="1980" y="544" font-size="13" font-weight="600" fill="white">S3 artifacts</text>
  <text x="1980" y="562" font-size="10" fill="rgba(255,255,255,0.72)">receipts · invoices · CMEK</text>
  <text x="1980" y="580" font-size="9" font-family="monospace" fill="rgba(255,255,255,0.55)">orderflow-ap-prod</text>

  <text x="1500" y="630" font-size="10" font-style="italic" fill="#706e67">Regional writer · low-latency edge for APAC traffic · feeds warehouse hourly.</text>

  <g transform="translate(1500, 656)" font-size="10">
    <rect x="0" y="0" width="140" height="24" rx="12" fill="#f5f1ea" stroke="#ddd5c6"></rect>
    <text x="70" y="16" text-anchor="middle" font-weight="600" fill="#4a4845">~12k orders/day</text>
    <rect x="152" y="0" width="120" height="24" rx="12" fill="#f5f1ea" stroke="#ddd5c6"></rect>
    <text x="212" y="16" text-anchor="middle" font-weight="600" fill="#4a4845">99.92% uptime</text>
    <rect x="284" y="0" width="100" height="24" rx="12" fill="#f5f1ea" stroke="#ddd5c6"></rect>
    <text x="334" y="16" text-anchor="middle" font-weight="600" fill="#4a4845">APAC edge</text>
  </g>

  <!-- ============================== CROSS-REGION REPLICATION ARROWS ============================== -->
  <!-- us-east-1 RDS ↔ eu-west-1 RDS replication (async bidirectional-style) -->
  <path d="M 280 696 C 540 760 540 760 790 696" stroke="#4f5fb8" stroke-width="1.8" fill="none" stroke-dasharray="6,4" marker-end="url(#arrowAccent)"></path>
  <rect x="640" y="710" width="220" height="22" rx="11" fill="#f5f1ea" stroke="#4f5fb8"></rect>
  <text x="750" y="725" text-anchor="middle" font-size="9" font-weight="600" fill="#4f5fb8" letter-spacing="0.8">RDS ASYNC REPLICATION</text>

  <!-- eu-west-1 ↔ ap-south-1 (note: spec says us↔eu primary, ap is regional) -->
  <path d="M 1200 740 C 1340 780 1340 780 1500 740" stroke="#9e9b95" stroke-width="1.4" fill="none" stroke-dasharray="4,3" marker-end="url(#arrowGrey)"></path>
  <rect x="1290" y="754" width="160" height="20" rx="10" fill="#f5f1ea" stroke="#9e9b95"></rect>
  <text x="1370" y="768" text-anchor="middle" font-size="9" font-weight="600" fill="#706e67" letter-spacing="0.8">SNAPSHOT SYNC · 6 h</text>

  <!-- ============================== SNOWFLAKE GLOBAL WAREHOUSE ============================== -->
  <rect x="780" y="838" width="640" height="84" rx="14" fill="url(#surfaceSlate)" filter="url(#cardShadowDark)"></rect>
  <g transform="translate(820, 880)"><path d="M0,-14 L12,-7 L12,7 L0,14 L-12,7 L-12,-7 Z" fill="none" stroke="rgba(255,255,255,0.92)" stroke-width="1.8"></path><path d="M-12,-7 L12,7 M12,-7 L-12,7 M0,-14 L0,14" stroke="rgba(255,255,255,0.75)" stroke-width="1.2"></path></g>
  <text x="852" y="868" font-size="16" font-weight="600" fill="white">Snowflake · global warehouse</text>
  <text x="852" y="888" font-size="11" fill="rgba(255,255,255,0.78)">Order events · GMV · inventory snapshots · finance reconciliation</text>
  <text x="852" y="906" font-size="10" font-style="italic" fill="rgba(255,255,255,0.6)">single global resource · all 3 regions feed it via Snowpipe (continuous)</text>
  <rect x="1296" y="852" width="108" height="22" rx="11" fill="rgba(255,255,255,0.15)"></rect>
  <text x="1350" y="867" text-anchor="middle" font-size="9" font-weight="600" fill="white" letter-spacing="1">GLOBAL · 1 REGION</text>

  <!-- Snowflake feed arrows from each region's data tier -->
  <path d="M 390 596 C 390 760 800 820 920 838" stroke="#9e9b95" stroke-width="1.4" fill="none" stroke-dasharray="4,3" marker-end="url(#arrowGrey)"></path>
  <path d="M 1100 596 C 1100 720 1100 760 1100 838" stroke="#9e9b95" stroke-width="1.4" fill="none" stroke-dasharray="4,3" marker-end="url(#arrowGrey)"></path>
  <path d="M 1810 596 C 1810 760 1400 820 1280 838" stroke="#9e9b95" stroke-width="1.4" fill="none" stroke-dasharray="4,3" marker-end="url(#arrowGrey)"></path>

  <!-- ============================== EXTERNAL INTEGRATIONS PANEL ============================== -->
  <text x="60" y="868" font-size="11" font-weight="600" fill="#706e67" letter-spacing="1.8">EXTERNAL INTEGRATIONS</text>
  <line x1="60" y1="876" x2="740" y2="876" stroke="#ddd5c6"></line>

  <rect x="60" y="886" width="140" height="56" rx="10" fill="white" stroke="#e8e2d8" filter="url(#cardShadow)"></rect>
  <rect x="72" y="898" width="32" height="32" rx="6" fill="#1e3f52"></rect>
  <text x="88" y="918" text-anchor="middle" font-size="11" font-weight="700" fill="white">ST</text>
  <text x="114" y="908" font-size="12" font-weight="600" fill="#1a1a18">Stripe</text>
  <text x="114" y="924" font-size="9" fill="#4a4845">payments</text>
  <text x="114" y="936" font-size="8" fill="#706e67">REST · 3DS2</text>

  <rect x="208" y="886" width="140" height="56" rx="10" fill="white" stroke="#e8e2d8" filter="url(#cardShadow)"></rect>
  <rect x="220" y="898" width="32" height="32" rx="6" fill="#5e3f1c"></rect>
  <text x="236" y="918" text-anchor="middle" font-size="11" font-weight="700" fill="white">SG</text>
  <text x="262" y="908" font-size="12" font-weight="600" fill="#1a1a18">SendGrid</text>
  <text x="262" y="924" font-size="9" fill="#4a4845">tx email</text>
  <text x="262" y="936" font-size="8" fill="#706e67">webhook</text>

  <rect x="356" y="886" width="140" height="56" rx="10" fill="white" stroke="#e8e2d8" filter="url(#cardShadow)"></rect>
  <rect x="368" y="898" width="32" height="32" rx="6" fill="#2a5e40"></rect>
  <text x="384" y="918" text-anchor="middle" font-size="11" font-weight="700" fill="white">A0</text>
  <text x="410" y="908" font-size="12" font-weight="600" fill="#1a1a18">Auth0</text>
  <text x="410" y="924" font-size="9" fill="#4a4845">OIDC SSO</text>
  <text x="410" y="936" font-size="8" fill="#706e67">per-tenant</text>

  <rect x="504" y="886" width="140" height="56" rx="10" fill="white" stroke="#e8e2d8" filter="url(#cardShadow)"></rect>
  <rect x="516" y="898" width="32" height="32" rx="6" fill="#7a2a2a"></rect>
  <text x="532" y="918" text-anchor="middle" font-size="11" font-weight="700" fill="white">SE</text>
  <text x="558" y="908" font-size="12" font-weight="600" fill="#1a1a18">Sentry</text>
  <text x="558" y="924" font-size="9" fill="#4a4845">errors</text>
  <text x="558" y="936" font-size="8" fill="#706e67">async DSN</text>

  <rect x="60" y="950" width="140" height="56" rx="10" fill="white" stroke="#e8e2d8" filter="url(#cardShadow)"></rect>
  <rect x="72" y="962" width="32" height="32" rx="6" fill="#7a2a2a"></rect>
  <text x="88" y="982" text-anchor="middle" font-size="11" font-weight="700" fill="white">SL</text>
  <text x="114" y="972" font-size="12" font-weight="600" fill="#1a1a18">Slack</text>
  <text x="114" y="988" font-size="9" fill="#4a4845">on-call alerts</text>
  <text x="114" y="1000" font-size="8" fill="#706e67">webhook</text>

  <rect x="208" y="950" width="140" height="56" rx="10" fill="white" stroke="#e8e2d8" filter="url(#cardShadow)"></rect>
  <rect x="220" y="962" width="32" height="32" rx="6" fill="#5e3f1c"></rect>
  <text x="236" y="982" text-anchor="middle" font-size="11" font-weight="700" fill="white">TW</text>
  <text x="262" y="972" font-size="12" font-weight="600" fill="#1a1a18">Twilio</text>
  <text x="262" y="988" font-size="9" fill="#4a4845">SMS · MFA</text>
  <text x="262" y="1000" font-size="8" fill="#706e67">REST</text>

  <rect x="356" y="950" width="140" height="56" rx="10" fill="white" stroke="#e8e2d8" filter="url(#cardShadow)"></rect>
  <rect x="368" y="962" width="32" height="32" rx="6" fill="#1e3f52"></rect>
  <text x="384" y="982" text-anchor="middle" font-size="11" font-weight="700" fill="white">SF</text>
  <text x="410" y="972" font-size="12" font-weight="600" fill="#1a1a18">Salesforce</text>
  <text x="410" y="988" font-size="9" fill="#4a4845">B2B CRM</text>
  <text x="410" y="1000" font-size="8" fill="#706e67">REST</text>

  <rect x="504" y="950" width="140" height="56" rx="10" fill="white" stroke="#e8e2d8" filter="url(#cardShadow)"></rect>
  <rect x="516" y="962" width="32" height="32" rx="6" fill="#1e3f52"></rect>
  <text x="532" y="982" text-anchor="middle" font-size="11" font-weight="700" fill="white">PP</text>
  <text x="558" y="972" font-size="12" font-weight="600" fill="#1a1a18">PayPal</text>
  <text x="558" y="988" font-size="9" fill="#4a4845">alt payments</text>
  <text x="558" y="1000" font-size="8" fill="#706e67">REST</text>

  <!-- right-side meta callout pulled from snowflake context -->
  <rect x="1480" y="950" width="660" height="56" rx="10" fill="rgba(79,95,184,0.06)" stroke="#4f5fb8"></rect>
  <text x="1500" y="972" font-size="11" font-weight="600" fill="#4f5fb8" letter-spacing="0.8">CROSS-REGION TOPOLOGY</text>
  <text x="1500" y="990" font-size="11" fill="#4a4845">us-east-1 (primary) → eu-west-1 (read replica · GDPR) · ap-south-1 (regional writer · APAC).</text>
  <text x="1500" y="1004" font-size="10" font-style="italic" fill="#706e67">All three regions feed the global Snowflake warehouse via Snowpipe continuous ingestion.</text>

  <!-- ============================== FOOTER ============================== -->
  <line x1="60" y1="1038" x2="2140" y2="1038" stroke="#ddd5c6"></line>
  <text x="60" y="1062" font-size="11" font-weight="600" fill="#706e67" letter-spacing="1.6">FREEFORM · MULTI-REGION LANDSCAPE</text>
  <text x="60" y="1082" font-size="11" fill="#4a4845">Three region columns · cross-region RDS replication · global Snowflake warehouse · 8 external integrations · wide-variant 2200 canvas.</text>
  <text x="2140" y="1082" text-anchor="end" font-size="11" font-style="italic" fill="#706e67">OrderFlow · freeform · diagram skill v2.0.1 · 2026-05</text>
</svg>
