<svg xmlns="http://www.w3.org/2000/svg" viewBox="0 0 2200 1100" font-family="'Roboto Flex', 'Roboto', system-ui, -apple-system, sans-serif">
  <title>freeform · material · light</title>
  <desc>OrderFlow worked example. ViewBox 2200x1100. Three region columns (us-east-1, eu-west-1, ap-south-1) each with surfaces + API gateway + 4 services + data tier. Cross-region RDS replication. Single global Snowflake warehouse. External integrations panel.</desc>

  <defs>
    <linearGradient id="canvas" x1="0" y1="0" x2="0" y2="1">
      <stop offset="0%" stop-color="#faf9f6"/>
      <stop offset="100%" stop-color="#ece8de"/>
    </linearGradient>
    <filter id="elev1" x="-10%" y="-10%" width="120%" height="125%">
      <feDropShadow dx="0" dy="1" stdDeviation="2" flood-color="#14171c" flood-opacity="0.10"/>
      <feDropShadow dx="0" dy="2" stdDeviation="6" flood-color="#14171c" flood-opacity="0.06"/>
    </filter>
    <filter id="elev3" x="-10%" y="-10%" width="120%" height="130%">
      <feDropShadow dx="0" dy="4" stdDeviation="8" flood-color="#14171c" flood-opacity="0.08"/>
      <feDropShadow dx="0" dy="1" stdDeviation="3" flood-color="#14171c" flood-opacity="0.10"/>
    </filter>
    <marker id="arrowAccent" markerWidth="8" markerHeight="8" refX="6" refY="3" orient="auto">
      <path d="M0,0 L0,6 L8,3 z" fill="#6b9cf0"/>
    </marker>
    <marker id="arrowGrey" markerWidth="8" markerHeight="8" refX="6" refY="3" orient="auto">
      <path d="M0,0 L0,6 L8,3 z" fill="#6f7480"/>
    </marker>
  </defs>

  <rect width="2200" height="1100" fill="url(#canvas)"/>

  <text x="1100" y="50" text-anchor="middle" font-size="28" font-weight="500" fill="#04060a"
        font-family="'Roboto Serif', ui-serif, Georgia, serif" letter-spacing="-0.4">OrderFlow · Multi-region Landscape</text>
  <text x="1100" y="76" text-anchor="middle" font-size="13" fill="#4d5159">Three regions · one platform · ~120k orders/day · p99 &lt; 1.2 s intake · wide-variant 2200 canvas</text>

  <!-- ============================== REGION COLUMN: us-east-1 ============================== -->
  <rect x="50" y="110" width="680" height="700" rx="20" ry="20"
        fill="none" stroke="#6b9cf0" stroke-width="1.5" stroke-dasharray="6,4"/>
  <rect x="68" y="98" width="220" height="24" rx="6" ry="6"
        fill="#faf9f6" stroke="#6b9cf0" stroke-width="1"/>
  <text x="178" y="114" text-anchor="middle"
        font-size="11" font-weight="600" letter-spacing="0.4" fill="#6b9cf0">
    VPC · us-east-1 · PRIMARY
  </text>
  <text x="710" y="114" text-anchor="end" font-size="11" font-weight="600" letter-spacing="0.4" fill="#3a5895">VIRGINIA</text>

  <text x="80" y="148" font-size="10" font-weight="600" fill="#6f7480" letter-spacing="0.6">SURFACES</text>
  <g transform="translate(80, 158)">
    <rect width="310" height="58" rx="12" ry="12" fill="#faf9f6" stroke="#d2cdc0" stroke-width="1"/>
    <rect x="14" y="13" width="32" height="32" rx="6" fill="#dfe9fb"/>
    <text x="30" y="34" text-anchor="middle" font-size="11" font-weight="700" fill="#1b3060">W</text>
    <text x="58" y="26" font-size="14" font-weight="500" fill="#04060a"
          font-family="'Roboto Serif', ui-serif, Georgia, serif">Web app</text>
    <text x="58" y="46" font-size="11" fill="#3a3f47">React SPA · 2.4M MAU</text>
  </g>
  <g transform="translate(400, 158)">
    <rect width="310" height="58" rx="12" ry="12" fill="#faf9f6" stroke="#d2cdc0" stroke-width="1"/>
    <rect x="14" y="13" width="32" height="32" rx="6" fill="#dfe9fb"/>
    <text x="30" y="34" text-anchor="middle" font-size="11" font-weight="700" fill="#1b3060">iOS</text>
    <text x="58" y="26" font-size="14" font-weight="500" fill="#04060a"
          font-family="'Roboto Serif', ui-serif, Georgia, serif">iOS app</text>
    <text x="58" y="46" font-size="11" fill="#3a3f47">native · 720k installs</text>
  </g>

  <text x="80" y="242" font-size="10" font-weight="600" fill="#6f7480" letter-spacing="0.6">API GATEWAY</text>
  <g transform="translate(80, 252)">
    <rect width="630" height="64" rx="12" ry="12" fill="#eaddcb" filter="url(#elev1)"/>
    <g transform="translate(32, 32) scale(0.0292)" fill="#3b2810">
      <path d="M480-80q-83 0-141.5-58.5T280-280v-280q0-83 58.5-141.5T480-760q83 0 141.5 58.5T680-560v280q0 83-58.5 141.5T480-80Zm0-80q50 0 85-35t35-85v-280q0-50-35-85t-85-35q-50 0-85 35t-35 85v280q0 50 35 85t85 35Z"/>
    </g>
    <text x="76" y="28" font-size="15" font-weight="500" fill="#3b2810"
          font-family="'Roboto Serif', ui-serif, Georgia, serif">Order API · ALB ingress</text>
    <text x="76" y="48" font-size="11" fill="#5e4318">REST · OIDC · idempotency-key dedup · p99 &lt; 1.2 s</text>
    <g transform="translate(530, 14)">
      <rect width="84" height="22" rx="11" ry="11" fill="#dfe9fb"/>
      <circle cx="14" cy="11" r="3" fill="#6b9cf0"/>
      <text x="24" y="15" font-size="11" font-weight="600" letter-spacing="0.4" fill="#3a5895">RUNNING</text>
    </g>
  </g>

  <text x="80" y="342" font-size="10" font-weight="600" fill="#6f7480" letter-spacing="0.6">SERVICES · ECS FARGATE</text>
  <g transform="translate(80, 352)">
    <rect width="310" height="64" rx="12" ry="12" fill="#e4e0d3" filter="url(#elev1)"/>
    <text x="20" y="26" font-size="14" font-weight="500" fill="#04060a"
          font-family="'Roboto Serif', ui-serif, Georgia, serif">Order Service</text>
    <text x="20" y="44" font-size="11" fill="#3a3f47">lifecycle orchestrator</text>
    <text x="20" y="58" font-size="10" font-style="italic" fill="#6f7480">order-svc · 8 replicas</text>
  </g>
  <g transform="translate(400, 352)">
    <rect width="310" height="64" rx="12" ry="12" fill="#e4e0d3" filter="url(#elev1)"/>
    <text x="20" y="26" font-size="14" font-weight="500" fill="#04060a"
          font-family="'Roboto Serif', ui-serif, Georgia, serif">Inventory Service</text>
    <text x="20" y="44" font-size="11" fill="#3a3f47">stock holds + counts</text>
    <text x="20" y="58" font-size="10" font-style="italic" fill="#6f7480">inventory-svc · 6 replicas</text>
  </g>
  <g transform="translate(80, 426)">
    <rect width="310" height="64" rx="12" ry="12" fill="#e4e0d3" filter="url(#elev1)"/>
    <text x="20" y="26" font-size="14" font-weight="500" fill="#04060a"
          font-family="'Roboto Serif', ui-serif, Georgia, serif">Payment Service</text>
    <text x="20" y="44" font-size="11" fill="#3a3f47">auth + capture · Stripe</text>
    <text x="20" y="58" font-size="10" font-style="italic" fill="#6f7480">payment-svc · 4 replicas</text>
  </g>
  <g transform="translate(400, 426)">
    <rect width="310" height="64" rx="12" ry="12" fill="#e4e0d3" filter="url(#elev1)"/>
    <text x="20" y="26" font-size="14" font-weight="500" fill="#04060a"
          font-family="'Roboto Serif', ui-serif, Georgia, serif">Notification Svc</text>
    <text x="20" y="44" font-size="11" fill="#3a3f47">email · SMS · push</text>
    <text x="20" y="58" font-size="10" font-style="italic" fill="#6f7480">notification-svc · 3 replicas</text>
  </g>

  <text x="80" y="516" font-size="10" font-weight="600" fill="#6f7480" letter-spacing="0.6">DATA TIER</text>
  <g transform="translate(80, 526)">
    <rect width="200" height="78" rx="12" ry="12" fill="#d3dbe7" filter="url(#elev1)"/>
    <text x="20" y="28" font-size="14" font-weight="500" fill="#0a1d44"
          font-family="'Roboto Serif', ui-serif, Georgia, serif">RDS Postgres</text>
    <text x="20" y="48" font-size="11" fill="#1b3060">orders · primary writer</text>
    <text x="20" y="64" font-size="10" font-style="italic" fill="#3a5895">db.r6g.4xl · 2 AZ</text>
  </g>
  <g transform="translate(290, 526)">
    <rect width="200" height="78" rx="12" ry="12" fill="#e5d2c8" filter="url(#elev1)"/>
    <text x="20" y="28" font-size="14" font-weight="500" fill="#3e1f15"
          font-family="'Roboto Serif', ui-serif, Georgia, serif">ElastiCache</text>
    <text x="20" y="48" font-size="11" fill="#5a2a1d">Redis · session + cart</text>
    <text x="20" y="64" font-size="10" font-style="italic" fill="#7a3a28">cache.r6g.xl</text>
  </g>
  <g transform="translate(500, 526)">
    <rect width="210" height="78" rx="12" ry="12" fill="#eadfce" filter="url(#elev1)"/>
    <text x="20" y="28" font-size="14" font-weight="500" fill="#544433"
          font-family="'Roboto Serif', ui-serif, Georgia, serif">S3 artifacts</text>
    <text x="20" y="48" font-size="11" fill="#604d3a">receipts · invoices · CMEK</text>
    <text x="20" y="64" font-size="10" font-style="italic" fill="#7a5728">orderflow-us-prod</text>
  </g>

  <text x="80" y="634" font-size="10" font-style="italic" fill="#6f7480"
        font-family="'Roboto Serif', ui-serif, Georgia, serif">Primary writer · global read fan-out to eu-west-1 + ap-south-1 (async).</text>

  <g transform="translate(80, 656)" font-size="11">
    <rect x="0" y="0" width="140" height="26" rx="13" ry="13" fill="rgba(212,165,116,0.30)"/>
    <text x="70" y="17" text-anchor="middle" font-weight="500" fill="#3b2810" font-variant-numeric="tabular-nums">~80k orders/day</text>
    <rect x="152" y="0" width="120" height="26" rx="13" ry="13" fill="rgba(212,165,116,0.30)"/>
    <text x="212" y="17" text-anchor="middle" font-weight="500" fill="#3b2810" font-variant-numeric="tabular-nums">99.97% uptime</text>
    <rect x="284" y="0" width="100" height="26" rx="13" ry="13" fill="rgba(212,165,116,0.30)"/>
    <text x="334" y="17" text-anchor="middle" font-weight="500" fill="#3b2810" font-variant-numeric="tabular-nums">primary</text>
  </g>

  <!-- ============================== REGION COLUMN: eu-west-1 ============================== -->
  <rect x="760" y="110" width="680" height="700" rx="20" ry="20"
        fill="none" stroke="#6f7480" stroke-width="1.5" stroke-dasharray="6,4"/>
  <rect x="778" y="98" width="220" height="24" rx="6" ry="6"
        fill="#faf9f6" stroke="#6f7480" stroke-width="1"/>
  <text x="888" y="114" text-anchor="middle"
        font-size="11" font-weight="600" letter-spacing="0.4" fill="#4d5159">
    VPC · eu-west-1 · GDPR
  </text>
  <text x="1420" y="114" text-anchor="end" font-size="11" font-weight="600" letter-spacing="0.4" fill="#4d5159">IRELAND</text>

  <text x="790" y="148" font-size="10" font-weight="600" fill="#6f7480" letter-spacing="0.6">SURFACES</text>
  <g transform="translate(790, 158)">
    <rect width="310" height="58" rx="12" ry="12" fill="#faf9f6" stroke="#d2cdc0" stroke-width="1"/>
    <rect x="14" y="13" width="32" height="32" rx="6" fill="#dfe9fb"/>
    <text x="30" y="34" text-anchor="middle" font-size="11" font-weight="700" fill="#1b3060">W</text>
    <text x="58" y="26" font-size="14" font-weight="500" fill="#04060a"
          font-family="'Roboto Serif', ui-serif, Georgia, serif">Web app</text>
    <text x="58" y="46" font-size="11" fill="#3a3f47">EU edge · 920k MAU</text>
  </g>
  <g transform="translate(1110, 158)">
    <rect width="310" height="58" rx="12" ry="12" fill="#faf9f6" stroke="#d2cdc0" stroke-width="1"/>
    <rect x="14" y="13" width="32" height="32" rx="6" fill="#dfe9fb"/>
    <text x="30" y="34" text-anchor="middle" font-size="11" font-weight="700" fill="#1b3060">iOS</text>
    <text x="58" y="26" font-size="14" font-weight="500" fill="#04060a"
          font-family="'Roboto Serif', ui-serif, Georgia, serif">iOS app</text>
    <text x="58" y="46" font-size="11" fill="#3a3f47">native · 240k installs</text>
  </g>

  <text x="790" y="242" font-size="10" font-weight="600" fill="#6f7480" letter-spacing="0.6">API GATEWAY</text>
  <g transform="translate(790, 252)">
    <rect width="630" height="64" rx="12" ry="12" fill="#eaddcb" filter="url(#elev1)"/>
    <g transform="translate(32, 32) scale(0.0292)" fill="#3b2810">
      <path d="M480-80q-83 0-141.5-58.5T280-280v-280q0-83 58.5-141.5T480-760q83 0 141.5 58.5T680-560v280q0 83-58.5 141.5T480-80Zm0-80q50 0 85-35t35-85v-280q0-50-35-85t-85-35q-50 0-85 35t-35 85v280q0 50 35 85t85 35Z"/>
    </g>
    <text x="76" y="28" font-size="15" font-weight="500" fill="#3b2810"
          font-family="'Roboto Serif', ui-serif, Georgia, serif">Order API · ALB ingress</text>
    <text x="76" y="48" font-size="11" fill="#5e4318">REST · GDPR · data residency = EU only</text>
    <g transform="translate(530, 14)">
      <rect width="84" height="22" rx="11" ry="11" fill="#dfe9fb"/>
      <circle cx="14" cy="11" r="3" fill="#6b9cf0"/>
      <text x="24" y="15" font-size="11" font-weight="600" letter-spacing="0.4" fill="#3a5895">RUNNING</text>
    </g>
  </g>

  <text x="790" y="342" font-size="10" font-weight="600" fill="#6f7480" letter-spacing="0.6">SERVICES · ECS FARGATE</text>
  <g transform="translate(790, 352)">
    <rect width="310" height="64" rx="12" ry="12" fill="#e4e0d3" filter="url(#elev1)"/>
    <text x="20" y="26" font-size="14" font-weight="500" fill="#04060a"
          font-family="'Roboto Serif', ui-serif, Georgia, serif">Order Service</text>
    <text x="20" y="44" font-size="11" fill="#3a3f47">lifecycle orchestrator</text>
    <text x="20" y="58" font-size="10" font-style="italic" fill="#6f7480">order-svc · 4 replicas</text>
  </g>
  <g transform="translate(1110, 352)">
    <rect width="310" height="64" rx="12" ry="12" fill="#e4e0d3" filter="url(#elev1)"/>
    <text x="20" y="26" font-size="14" font-weight="500" fill="#04060a"
          font-family="'Roboto Serif', ui-serif, Georgia, serif">Inventory Service</text>
    <text x="20" y="44" font-size="11" fill="#3a3f47">stock holds + counts</text>
    <text x="20" y="58" font-size="10" font-style="italic" fill="#6f7480">inventory-svc · 3 replicas</text>
  </g>
  <g transform="translate(790, 426)">
    <rect width="310" height="64" rx="12" ry="12" fill="#e4e0d3" filter="url(#elev1)"/>
    <text x="20" y="26" font-size="14" font-weight="500" fill="#04060a"
          font-family="'Roboto Serif', ui-serif, Georgia, serif">Payment Service</text>
    <text x="20" y="44" font-size="11" fill="#3a3f47">auth + capture · Stripe EU</text>
    <text x="20" y="58" font-size="10" font-style="italic" fill="#6f7480">payment-svc · 3 replicas</text>
  </g>
  <g transform="translate(1110, 426)">
    <rect width="310" height="64" rx="12" ry="12" fill="#e4e0d3" filter="url(#elev1)"/>
    <text x="20" y="26" font-size="14" font-weight="500" fill="#04060a"
          font-family="'Roboto Serif', ui-serif, Georgia, serif">Notification Svc</text>
    <text x="20" y="44" font-size="11" fill="#3a3f47">email · SMS · push</text>
    <text x="20" y="58" font-size="10" font-style="italic" fill="#6f7480">notification-svc · 2 replicas</text>
  </g>

  <text x="790" y="516" font-size="10" font-weight="600" fill="#6f7480" letter-spacing="0.6">DATA TIER</text>
  <g transform="translate(790, 526)">
    <rect width="200" height="78" rx="12" ry="12" fill="#d3dbe7" filter="url(#elev1)"/>
    <text x="20" y="28" font-size="14" font-weight="500" fill="#0a1d44"
          font-family="'Roboto Serif', ui-serif, Georgia, serif">RDS Postgres</text>
    <text x="20" y="48" font-size="11" fill="#1b3060">read replica · async</text>
    <text x="20" y="64" font-size="10" font-style="italic" fill="#3a5895">db.r6g.2xl · 2 AZ</text>
  </g>
  <g transform="translate(1000, 526)">
    <rect width="200" height="78" rx="12" ry="12" fill="#e5d2c8" filter="url(#elev1)"/>
    <text x="20" y="28" font-size="14" font-weight="500" fill="#3e1f15"
          font-family="'Roboto Serif', ui-serif, Georgia, serif">ElastiCache</text>
    <text x="20" y="48" font-size="11" fill="#5a2a1d">Redis · session + cart</text>
    <text x="20" y="64" font-size="10" font-style="italic" fill="#7a3a28">cache.r6g.large</text>
  </g>
  <g transform="translate(1210, 526)">
    <rect width="210" height="78" rx="12" ry="12" fill="#eadfce" filter="url(#elev1)"/>
    <text x="20" y="28" font-size="14" font-weight="500" fill="#544433"
          font-family="'Roboto Serif', ui-serif, Georgia, serif">S3 artifacts</text>
    <text x="20" y="48" font-size="11" fill="#604d3a">receipts · CMEK · EU keys</text>
    <text x="20" y="64" font-size="10" font-style="italic" fill="#7a5728">orderflow-eu-prod</text>
  </g>

  <text x="790" y="634" font-size="10" font-style="italic" fill="#6f7480"
        font-family="'Roboto Serif', ui-serif, Georgia, serif">Read replica of us-east-1 · GDPR-locked · writes failover only.</text>

  <g transform="translate(790, 656)" font-size="11">
    <rect x="0" y="0" width="140" height="26" rx="13" ry="13" fill="rgba(110,116,128,0.16)"/>
    <text x="70" y="17" text-anchor="middle" font-weight="500" fill="#3a3f47" font-variant-numeric="tabular-nums">~28k orders/day</text>
    <rect x="152" y="0" width="120" height="26" rx="13" ry="13" fill="rgba(110,116,128,0.16)"/>
    <text x="212" y="17" text-anchor="middle" font-weight="500" fill="#3a3f47" font-variant-numeric="tabular-nums">99.94% uptime</text>
    <rect x="284" y="0" width="100" height="26" rx="13" ry="13" fill="rgba(110,116,128,0.16)"/>
    <text x="334" y="17" text-anchor="middle" font-weight="500" fill="#3a3f47" font-variant-numeric="tabular-nums">GDPR</text>
  </g>

  <!-- ============================== REGION COLUMN: ap-south-1 ============================== -->
  <rect x="1470" y="110" width="680" height="700" rx="20" ry="20"
        fill="none" stroke="#6f7480" stroke-width="1.5" stroke-dasharray="6,4"/>
  <rect x="1488" y="98" width="220" height="24" rx="6" ry="6"
        fill="#faf9f6" stroke="#6f7480" stroke-width="1"/>
  <text x="1598" y="114" text-anchor="middle"
        font-size="11" font-weight="600" letter-spacing="0.4" fill="#4d5159">
    VPC · ap-south-1 · APAC
  </text>
  <text x="2130" y="114" text-anchor="end" font-size="11" font-weight="600" letter-spacing="0.4" fill="#4d5159">MUMBAI</text>

  <text x="1500" y="148" font-size="10" font-weight="600" fill="#6f7480" letter-spacing="0.6">SURFACES</text>
  <g transform="translate(1500, 158)">
    <rect width="310" height="58" rx="12" ry="12" fill="#faf9f6" stroke="#d2cdc0" stroke-width="1"/>
    <rect x="14" y="13" width="32" height="32" rx="6" fill="#dfe9fb"/>
    <text x="30" y="34" text-anchor="middle" font-size="11" font-weight="700" fill="#1b3060">W</text>
    <text x="58" y="26" font-size="14" font-weight="500" fill="#04060a"
          font-family="'Roboto Serif', ui-serif, Georgia, serif">Web app</text>
    <text x="58" y="46" font-size="11" fill="#3a3f47">APAC edge · 480k MAU</text>
  </g>
  <g transform="translate(1820, 158)">
    <rect width="310" height="58" rx="12" ry="12" fill="#faf9f6" stroke="#d2cdc0" stroke-width="1"/>
    <rect x="14" y="13" width="32" height="32" rx="6" fill="#dfe9fb"/>
    <text x="30" y="34" text-anchor="middle" font-size="11" font-weight="700" fill="#1b3060">iOS</text>
    <text x="58" y="26" font-size="14" font-weight="500" fill="#04060a"
          font-family="'Roboto Serif', ui-serif, Georgia, serif">iOS app</text>
    <text x="58" y="46" font-size="11" fill="#3a3f47">native · 96k installs</text>
  </g>

  <text x="1500" y="242" font-size="10" font-weight="600" fill="#6f7480" letter-spacing="0.6">API GATEWAY</text>
  <g transform="translate(1500, 252)">
    <rect width="630" height="64" rx="12" ry="12" fill="#eaddcb" filter="url(#elev1)"/>
    <g transform="translate(32, 32) scale(0.0292)" fill="#3b2810">
      <path d="M480-80q-83 0-141.5-58.5T280-280v-280q0-83 58.5-141.5T480-760q83 0 141.5 58.5T680-560v280q0 83-58.5 141.5T480-80Zm0-80q50 0 85-35t35-85v-280q0-50-35-85t-85-35q-50 0-85 35t-35 85v280q0 50 35 85t85 35Z"/>
    </g>
    <text x="76" y="28" font-size="15" font-weight="500" fill="#3b2810"
          font-family="'Roboto Serif', ui-serif, Georgia, serif">Order API · ALB ingress</text>
    <text x="76" y="48" font-size="11" fill="#5e4318">REST · low-latency edge · regional writes</text>
    <g transform="translate(530, 14)">
      <rect width="84" height="22" rx="11" ry="11" fill="#dfe9fb"/>
      <circle cx="14" cy="11" r="3" fill="#6b9cf0"/>
      <text x="24" y="15" font-size="11" font-weight="600" letter-spacing="0.4" fill="#3a5895">RUNNING</text>
    </g>
  </g>

  <text x="1500" y="342" font-size="10" font-weight="600" fill="#6f7480" letter-spacing="0.6">SERVICES · ECS FARGATE</text>
  <g transform="translate(1500, 352)">
    <rect width="310" height="64" rx="12" ry="12" fill="#e4e0d3" filter="url(#elev1)"/>
    <text x="20" y="26" font-size="14" font-weight="500" fill="#04060a"
          font-family="'Roboto Serif', ui-serif, Georgia, serif">Order Service</text>
    <text x="20" y="44" font-size="11" fill="#3a3f47">lifecycle orchestrator</text>
    <text x="20" y="58" font-size="10" font-style="italic" fill="#6f7480">order-svc · 3 replicas</text>
  </g>
  <g transform="translate(1820, 352)">
    <rect width="310" height="64" rx="12" ry="12" fill="#e4e0d3" filter="url(#elev1)"/>
    <text x="20" y="26" font-size="14" font-weight="500" fill="#04060a"
          font-family="'Roboto Serif', ui-serif, Georgia, serif">Inventory Service</text>
    <text x="20" y="44" font-size="11" fill="#3a3f47">stock holds + counts</text>
    <text x="20" y="58" font-size="10" font-style="italic" fill="#6f7480">inventory-svc · 2 replicas</text>
  </g>
  <g transform="translate(1500, 426)">
    <rect width="310" height="64" rx="12" ry="12" fill="#e4e0d3" filter="url(#elev1)"/>
    <text x="20" y="26" font-size="14" font-weight="500" fill="#04060a"
          font-family="'Roboto Serif', ui-serif, Georgia, serif">Payment Service</text>
    <text x="20" y="44" font-size="11" fill="#3a3f47">auth + capture · Stripe APAC</text>
    <text x="20" y="58" font-size="10" font-style="italic" fill="#6f7480">payment-svc · 2 replicas</text>
  </g>
  <g transform="translate(1820, 426)">
    <rect width="310" height="64" rx="12" ry="12" fill="#e4e0d3" filter="url(#elev1)"/>
    <text x="20" y="26" font-size="14" font-weight="500" fill="#04060a"
          font-family="'Roboto Serif', ui-serif, Georgia, serif">Notification Svc</text>
    <text x="20" y="44" font-size="11" fill="#3a3f47">email · SMS · push</text>
    <text x="20" y="58" font-size="10" font-style="italic" fill="#6f7480">notification-svc · 2 replicas</text>
  </g>

  <text x="1500" y="516" font-size="10" font-weight="600" fill="#6f7480" letter-spacing="0.6">DATA TIER</text>
  <g transform="translate(1500, 526)">
    <rect width="200" height="78" rx="12" ry="12" fill="#d3dbe7" filter="url(#elev1)"/>
    <text x="20" y="28" font-size="14" font-weight="500" fill="#0a1d44"
          font-family="'Roboto Serif', ui-serif, Georgia, serif">RDS Postgres</text>
    <text x="20" y="48" font-size="11" fill="#1b3060">regional writer</text>
    <text x="20" y="64" font-size="10" font-style="italic" fill="#3a5895">db.r6g.xl · 2 AZ</text>
  </g>
  <g transform="translate(1710, 526)">
    <rect width="200" height="78" rx="12" ry="12" fill="#e5d2c8" filter="url(#elev1)"/>
    <text x="20" y="28" font-size="14" font-weight="500" fill="#3e1f15"
          font-family="'Roboto Serif', ui-serif, Georgia, serif">ElastiCache</text>
    <text x="20" y="48" font-size="11" fill="#5a2a1d">Redis · session + cart</text>
    <text x="20" y="64" font-size="10" font-style="italic" fill="#7a3a28">cache.r6g.large</text>
  </g>
  <g transform="translate(1920, 526)">
    <rect width="210" height="78" rx="12" ry="12" fill="#eadfce" filter="url(#elev1)"/>
    <text x="20" y="28" font-size="14" font-weight="500" fill="#544433"
          font-family="'Roboto Serif', ui-serif, Georgia, serif">S3 artifacts</text>
    <text x="20" y="48" font-size="11" fill="#604d3a">receipts · invoices · CMEK</text>
    <text x="20" y="64" font-size="10" font-style="italic" fill="#7a5728">orderflow-ap-prod</text>
  </g>

  <text x="1500" y="634" font-size="10" font-style="italic" fill="#6f7480"
        font-family="'Roboto Serif', ui-serif, Georgia, serif">Regional writer · low-latency edge for APAC traffic · feeds warehouse hourly.</text>

  <g transform="translate(1500, 656)" font-size="11">
    <rect x="0" y="0" width="140" height="26" rx="13" ry="13" fill="rgba(110,116,128,0.16)"/>
    <text x="70" y="17" text-anchor="middle" font-weight="500" fill="#3a3f47" font-variant-numeric="tabular-nums">~12k orders/day</text>
    <rect x="152" y="0" width="120" height="26" rx="13" ry="13" fill="rgba(110,116,128,0.16)"/>
    <text x="212" y="17" text-anchor="middle" font-weight="500" fill="#3a3f47" font-variant-numeric="tabular-nums">99.92% uptime</text>
    <rect x="284" y="0" width="100" height="26" rx="13" ry="13" fill="rgba(110,116,128,0.16)"/>
    <text x="334" y="17" text-anchor="middle" font-weight="500" fill="#3a3f47" font-variant-numeric="tabular-nums">APAC edge</text>
  </g>

  <!-- ============================== CROSS-REGION ARROWS ============================== -->
  <path d="M 280 696 C 540 760 540 760 790 696" stroke="#6b9cf0" stroke-width="1.8" fill="none" stroke-dasharray="6,4" marker-end="url(#arrowAccent)"/>
  <rect x="640" y="708" width="220" height="22" rx="11" ry="11" fill="#faf9f6" stroke="#6b9cf0" stroke-width="1"/>
  <text x="750" y="723" text-anchor="middle" font-size="10" font-weight="600" letter-spacing="0.4" fill="#3a5895">RDS ASYNC REPLICATION</text>

  <path d="M 1200 740 C 1340 780 1340 780 1500 740" stroke="#6f7480" stroke-width="1.4" fill="none" stroke-dasharray="4,3" marker-end="url(#arrowGrey)"/>
  <rect x="1290" y="752" width="160" height="22" rx="11" ry="11" fill="#faf9f6" stroke="#6f7480" stroke-width="1"/>
  <text x="1370" y="767" text-anchor="middle" font-size="10" font-weight="600" letter-spacing="0.4" fill="#4d5159">SNAPSHOT SYNC · 6 h</text>

  <!-- ============================== SNOWFLAKE GLOBAL WAREHOUSE ============================== -->
  <g transform="translate(780, 836)">
    <rect width="640" height="88" rx="12" ry="12" fill="#d8dae0" filter="url(#elev3)"/>
    <g transform="translate(28, 44) scale(0.05)" fill="#3a3e46">
      <path d="M480-80 80-480l400-400 400 400L480-80Zm0-114 286-286-286-286-286 286 286 286Zm0-286Z"/>
    </g>
    <text x="100" y="34" font-size="20" font-weight="500" fill="#04060a"
          font-family="'Roboto Serif', ui-serif, Georgia, serif" letter-spacing="-0.2">Snowflake · global warehouse</text>
    <text x="100" y="56" font-size="13" fill="#3a3f47">Order events · GMV · inventory snapshots · finance reconciliation</text>
    <text x="100" y="76" font-size="11" font-style="italic" fill="#6f7480"
          font-family="'Roboto Serif', ui-serif, Georgia, serif">single global resource · all 3 regions feed it via Snowpipe (continuous)</text>
    <g transform="translate(516, 16)">
      <rect width="108" height="22" rx="11" ry="11" fill="rgba(58,62,70,0.16)"/>
      <text x="54" y="15" text-anchor="middle" font-size="10" font-weight="600" letter-spacing="0.6" fill="#3a3e46">GLOBAL · 1 REGION</text>
    </g>
  </g>

  <path d="M 390 604 C 390 760 800 820 920 836" stroke="#6f7480" stroke-width="1.4" fill="none" stroke-dasharray="4,3" marker-end="url(#arrowGrey)"/>
  <path d="M 1100 604 C 1100 720 1100 760 1100 836" stroke="#6f7480" stroke-width="1.4" fill="none" stroke-dasharray="4,3" marker-end="url(#arrowGrey)"/>
  <path d="M 1810 604 C 1810 760 1400 820 1280 836" stroke="#6f7480" stroke-width="1.4" fill="none" stroke-dasharray="4,3" marker-end="url(#arrowGrey)"/>

  <!-- ============================== EXTERNAL INTEGRATIONS PANEL ============================== -->
  <text x="60" y="868" font-size="11" font-weight="600" fill="#4d5159" letter-spacing="0.6">EXTERNAL INTEGRATIONS</text>
  <line x1="60" y1="876" x2="740" y2="876" stroke="#d2cdc0" stroke-width="1"/>

  <g transform="translate(60, 884)">
    <rect width="140" height="58" rx="12" ry="12" fill="#d3dbe7" filter="url(#elev1)"/>
    <rect x="14" y="13" width="32" height="32" rx="6" fill="rgba(107,156,240,0.36)"/>
    <text x="30" y="34" text-anchor="middle" font-size="11" font-weight="700" letter-spacing="0.4" fill="#0a1d44">ST</text>
    <text x="56" y="24" font-size="13" font-weight="500" fill="#0a1d44"
          font-family="'Roboto Serif', ui-serif, Georgia, serif">Stripe</text>
    <text x="56" y="40" font-size="10" fill="#1b3060">payments</text>
    <text x="56" y="52" font-size="9" font-style="italic" fill="#3a5895">REST · 3DS2</text>
  </g>
  <g transform="translate(208, 884)">
    <rect width="140" height="58" rx="12" ry="12" fill="#eadfce" filter="url(#elev1)"/>
    <rect x="14" y="13" width="32" height="32" rx="6" fill="rgba(138,109,78,0.32)"/>
    <text x="30" y="34" text-anchor="middle" font-size="11" font-weight="700" letter-spacing="0.4" fill="#544433">SG</text>
    <text x="56" y="24" font-size="13" font-weight="500" fill="#544433"
          font-family="'Roboto Serif', ui-serif, Georgia, serif">SendGrid</text>
    <text x="56" y="40" font-size="10" fill="#604d3a">tx email</text>
    <text x="56" y="52" font-size="9" font-style="italic" fill="#7a5728">webhook</text>
  </g>
  <g transform="translate(356, 884)">
    <rect width="140" height="58" rx="12" ry="12" fill="#d6e1d0" filter="url(#elev1)"/>
    <rect x="14" y="13" width="32" height="32" rx="6" fill="rgba(111,179,128,0.34)"/>
    <text x="30" y="34" text-anchor="middle" font-size="11" font-weight="700" letter-spacing="0.4" fill="#446e51">A0</text>
    <text x="56" y="24" font-size="13" font-weight="500" fill="#446e51"
          font-family="'Roboto Serif', ui-serif, Georgia, serif">Auth0</text>
    <text x="56" y="40" font-size="10" fill="#566f59">OIDC SSO</text>
    <text x="56" y="52" font-size="9" font-style="italic" fill="#456546">per-tenant</text>
  </g>
  <g transform="translate(504, 884)">
    <rect width="140" height="58" rx="12" ry="12" fill="#ebdfca" filter="url(#elev1)"/>
    <rect x="14" y="13" width="32" height="32" rx="6" fill="rgba(212,160,86,0.32)"/>
    <text x="30" y="34" text-anchor="middle" font-size="11" font-weight="700" letter-spacing="0.4" fill="#816238">SE</text>
    <text x="56" y="24" font-size="13" font-weight="500" fill="#816238"
          font-family="'Roboto Serif', ui-serif, Georgia, serif">Sentry</text>
    <text x="56" y="40" font-size="10" fill="#7a5728">errors</text>
    <text x="56" y="52" font-size="9" font-style="italic" fill="#7a5728">async DSN</text>
  </g>

  <g transform="translate(60, 950)">
    <rect width="140" height="58" rx="12" ry="12" fill="#ebdfca" filter="url(#elev1)"/>
    <rect x="14" y="13" width="32" height="32" rx="6" fill="rgba(212,160,86,0.32)"/>
    <text x="30" y="34" text-anchor="middle" font-size="11" font-weight="700" letter-spacing="0.4" fill="#816238">SL</text>
    <text x="56" y="24" font-size="13" font-weight="500" fill="#816238"
          font-family="'Roboto Serif', ui-serif, Georgia, serif">Slack</text>
    <text x="56" y="40" font-size="10" fill="#7a5728">on-call alerts</text>
    <text x="56" y="52" font-size="9" font-style="italic" fill="#7a5728">webhook</text>
  </g>
  <g transform="translate(208, 950)">
    <rect width="140" height="58" rx="12" ry="12" fill="#eadfce" filter="url(#elev1)"/>
    <rect x="14" y="13" width="32" height="32" rx="6" fill="rgba(138,109,78,0.32)"/>
    <text x="30" y="34" text-anchor="middle" font-size="11" font-weight="700" letter-spacing="0.4" fill="#544433">TW</text>
    <text x="56" y="24" font-size="13" font-weight="500" fill="#544433"
          font-family="'Roboto Serif', ui-serif, Georgia, serif">Twilio</text>
    <text x="56" y="40" font-size="10" fill="#604d3a">SMS · MFA</text>
    <text x="56" y="52" font-size="9" font-style="italic" fill="#7a5728">REST</text>
  </g>
  <g transform="translate(356, 950)">
    <rect width="140" height="58" rx="12" ry="12" fill="#d3dbe7" filter="url(#elev1)"/>
    <rect x="14" y="13" width="32" height="32" rx="6" fill="rgba(107,156,240,0.36)"/>
    <text x="30" y="34" text-anchor="middle" font-size="11" font-weight="700" letter-spacing="0.4" fill="#0a1d44">SF</text>
    <text x="56" y="24" font-size="13" font-weight="500" fill="#0a1d44"
          font-family="'Roboto Serif', ui-serif, Georgia, serif">Salesforce</text>
    <text x="56" y="40" font-size="10" fill="#1b3060">B2B CRM</text>
    <text x="56" y="52" font-size="9" font-style="italic" fill="#3a5895">REST</text>
  </g>
  <g transform="translate(504, 950)">
    <rect width="140" height="58" rx="12" ry="12" fill="#d3dbe7" filter="url(#elev1)"/>
    <rect x="14" y="13" width="32" height="32" rx="6" fill="rgba(107,156,240,0.36)"/>
    <text x="30" y="34" text-anchor="middle" font-size="11" font-weight="700" letter-spacing="0.4" fill="#0a1d44">PP</text>
    <text x="56" y="24" font-size="13" font-weight="500" fill="#0a1d44"
          font-family="'Roboto Serif', ui-serif, Georgia, serif">PayPal</text>
    <text x="56" y="40" font-size="10" fill="#1b3060">alt payments</text>
    <text x="56" y="52" font-size="9" font-style="italic" fill="#3a5895">REST</text>
  </g>

  <g transform="translate(1480, 950)">
    <rect width="660" height="58" rx="12" ry="12" fill="rgba(107,156,240,0.08)" stroke="#6b9cf0" stroke-width="1"/>
    <text x="20" y="24" font-size="11" font-weight="600" letter-spacing="0.4" fill="#3a5895">CROSS-REGION TOPOLOGY</text>
    <text x="20" y="42" font-size="12" fill="#1b3060">us-east-1 (primary) → eu-west-1 (read replica · GDPR) · ap-south-1 (regional writer · APAC).</text>
    <text x="20" y="54" font-size="10" font-style="italic" fill="#3a5895"
          font-family="'Roboto Serif', ui-serif, Georgia, serif">All three regions feed the global Snowflake warehouse via Snowpipe continuous ingestion.</text>
  </g>

  <!-- ============================== FOOTER ============================== -->
  <line x1="60" y1="1038" x2="2140" y2="1038" stroke="#d2cdc0" stroke-width="1"/>
  <text x="60" y="1066" font-size="12" fill="#6f7480">
    solid arrow (info-blue) = sync / replication   ·   dashed arrow (muted) = async / scheduled handoff   ·   region boundary = VPC edge
  </text>
  <text x="2140" y="1066" text-anchor="end" font-size="11" fill="#a8aab0" font-variant-numeric="tabular-nums">
    OrderFlow · freeform · diagram skill v2.0.1 · 2026-05
  </text>
</svg>
