<?xml version="1.0" encoding="UTF-8"?>
<svg xmlns="http://www.w3.org/2000/svg" width="1660" height="980" viewBox="0 0 1660 980" preserveAspectRatio="xMidYMid meet" font-family="Inter, system-ui, -apple-system, sans-serif">

  <!-- ================= DEFS ================= -->
  <defs>
    <linearGradient id="bgGrad" x1="0" y1="0" x2="0" y2="1">
      <stop offset="0%" stop-color="#f5f1ea"/>
      <stop offset="100%" stop-color="#ece8e0"/>
    </linearGradient>
    <linearGradient id="drafterGrad" x1="0" y1="0" x2="1" y2="0">
      <stop offset="0%" stop-color="#d4a574"/>
      <stop offset="100%" stop-color="#7cc4b8"/>
    </linearGradient>
    <filter id="cardShadow" x="-4%" y="-4%" width="108%" height="116%">
      <feDropShadow dx="0" dy="2" stdDeviation="6" flood-color="#1a1a18" flood-opacity="0.10"/>
    </filter>
    <marker id="arrowAccent" viewBox="0 0 10 10" refX="9" refY="5" markerWidth="7" markerHeight="7" orient="auto-start-reverse">
      <path d="M0,0 L10,5 L0,10 z" fill="#4f5fb8"/>
    </marker>
    <marker id="arrowSoft" viewBox="0 0 10 10" refX="9" refY="5" markerWidth="6" markerHeight="6" orient="auto-start-reverse">
      <path d="M0,0 L10,5 L0,10 z" fill="#9e9b95"/>
    </marker>
    <marker id="arrowSable" viewBox="0 0 10 10" refX="9" refY="5" markerWidth="6" markerHeight="6" orient="auto-start-reverse">
      <path d="M0,0 L10,5 L0,10 z" fill="#b8895a"/>
    </marker>
    <marker id="arrowSage" viewBox="0 0 10 10" refX="9" refY="5" markerWidth="6" markerHeight="6" orient="auto-start-reverse">
      <path d="M0,0 L10,5 L0,10 z" fill="#5fa89c"/>
    </marker>
    <!-- Page-with-text icon for the prompt ribbon -->
    <g id="iconPage">
      <rect x="0" y="0" width="14" height="18" rx="1.5" fill="none" stroke="#7a5028" stroke-width="1.4"/>
      <line x1="3" y1="5" x2="11" y2="5" stroke="#7a5028" stroke-width="1.2"/>
      <line x1="3" y1="9" x2="11" y2="9" stroke="#7a5028" stroke-width="1.2"/>
      <line x1="3" y1="13" x2="9"  y2="13" stroke="#7a5028" stroke-width="1.2"/>
    </g>
    <!-- Document icon for final.document terminal -->
    <g id="iconDoc">
      <rect x="0" y="0" width="32" height="40" rx="3" fill="white" stroke="#4f5fb8" stroke-width="1.6"/>
      <line x1="6" y1="11" x2="26" y2="11" stroke="#4f5fb8" stroke-width="1.4"/>
      <line x1="6" y1="17" x2="26" y2="17" stroke="#4f5fb8" stroke-width="1.4"/>
      <line x1="6" y1="23" x2="26" y2="23" stroke="#4f5fb8" stroke-width="1.4"/>
      <line x1="6" y1="29" x2="20" y2="29" stroke="#4f5fb8" stroke-width="1.4"/>
    </g>
    <!-- Multi-round loop glyph -->
    <g id="iconLoop">
      <path d="M 2 8 a 9 9 0 1 1 4 7" fill="none" stroke="#4f5fb8" stroke-width="1.6" stroke-linecap="round"/>
      <path d="M 6 11 L 6 16 L 1 16" fill="none" stroke="#4f5fb8" stroke-width="1.6" stroke-linecap="round" stroke-linejoin="round"/>
    </g>
    <!-- One-shot straight arrow glyph -->
    <g id="iconArrow">
      <line x1="0" y1="9" x2="18" y2="9" stroke="#706e67" stroke-width="1.8" stroke-linecap="round"/>
      <path d="M 13 4 L 18 9 L 13 14" fill="none" stroke="#706e67" stroke-width="1.8" stroke-linecap="round" stroke-linejoin="round"/>
    </g>
    <!-- Gear glyph -->
    <g id="iconGear">
      <circle cx="9" cy="9" r="3" fill="none" stroke="#706e67" stroke-width="1.6"/>
      <g stroke="#706e67" stroke-width="1.6" stroke-linecap="round">
        <line x1="9" y1="1"  x2="9" y2="3.5"/>
        <line x1="9" y1="14.5" x2="9" y2="17"/>
        <line x1="1" y1="9"  x2="3.5" y2="9"/>
        <line x1="14.5" y1="9" x2="17" y2="9"/>
        <line x1="3.3" y1="3.3" x2="5.1" y2="5.1"/>
        <line x1="12.9" y1="12.9" x2="14.7" y2="14.7"/>
        <line x1="3.3" y1="14.7" x2="5.1" y2="12.9"/>
        <line x1="12.9" y1="5.1" x2="14.7" y2="3.3"/>
      </g>
    </g>
    <!-- Category bubbles (filled circle, knockout-white letter) -->
    <g id="bubQ"><circle r="9" fill="#4f5fb8"/><text y="3" text-anchor="middle" font-size="10" font-weight="700" fill="white">Q</text></g>
    <g id="bubD"><circle r="9" fill="#d4a056"/><text y="3" text-anchor="middle" font-size="10" font-weight="700" fill="white">D</text></g>
    <g id="bubI"><circle r="9" fill="#c75b54"/><text y="3" text-anchor="middle" font-size="10" font-weight="700" fill="white">I</text></g>
    <g id="bubC"><circle r="9" fill="#8a877f"/><text y="3" text-anchor="middle" font-size="10" font-weight="700" fill="white">C</text></g>
  </defs>

  <rect width="1660" height="980" fill="url(#bgGrad)"/>

  <!-- ================= TITLE ================= -->
  <text x="830" y="44" text-anchor="middle" font-size="22" font-weight="600" fill="#1a1a18" letter-spacing="-0.3">Dual Research — pipeline</text>
  <text x="830" y="65" text-anchor="middle" font-size="12" fill="#706e67">Six phases · two agents · phase mode shown above each column · categories raised shown below</text>

  <!-- ================= USER PROMPT RIBBON ================= -->
  <g transform="translate(70, 88)">
    <rect x="0" y="0" width="1520" height="40" rx="20" fill="#fbeede" stroke="#d8b890"/>
    <g transform="translate(18, 11)"><use href="#iconPage"/></g>
    <text x="44" y="18" font-size="11" font-weight="600" fill="#7a5028" letter-spacing="1.5">USER PROMPT</text>
    <text x="44" y="32" font-size="10.5" fill="#7a5028">page-with-text · consumed by every phase below</text>
    <text x="1502" y="25" text-anchor="end" font-size="10" fill="#7a5028" font-style="italic">persistent · read-only</text>
  </g>
  <!-- Feathered drop-down arrows into each phase header -->
  <g stroke="#c8a878" stroke-width="1.2" stroke-dasharray="3,3" fill="none" opacity="0.85" marker-end="url(#arrowSoft)">
    <line x1="185"  y1="130" x2="185"  y2="184"/>
    <line x1="439"  y1="130" x2="439"  y2="184"/>
    <line x1="693"  y1="130" x2="693"  y2="184"/>
    <line x1="947"  y1="130" x2="947"  y2="184"/>
    <line x1="1201" y1="130" x2="1201" y2="184"/>
    <line x1="1455" y1="130" x2="1455" y2="184"/>
  </g>

  <!-- ================= PHASE MODE GLYPHS (above each column) ================= -->
  <!-- P0 multi-round -->
  <g transform="translate(176, 152)"><use href="#iconLoop"/></g>
  <text x="200" y="166" font-size="9.5" font-weight="600" fill="#4f5fb8" letter-spacing="0.5">multi-round</text>
  <!-- P1 one-shot -->
  <g transform="translate(420, 152)"><use href="#iconArrow"/></g>
  <text x="446" y="166" font-size="9.5" font-weight="600" fill="#706e67" letter-spacing="0.5">one-shot</text>
  <!-- P2 multi-round -->
  <g transform="translate(684, 152)"><use href="#iconLoop"/></g>
  <text x="708" y="166" font-size="9.5" font-weight="600" fill="#4f5fb8" letter-spacing="0.5">multi-round</text>
  <!-- P3 one-shot -->
  <g transform="translate(928, 152)"><use href="#iconArrow"/></g>
  <text x="954" y="166" font-size="9.5" font-weight="600" fill="#706e67" letter-spacing="0.5">one-shot</text>
  <!-- P4 multi-round -->
  <g transform="translate(1192, 152)"><use href="#iconLoop"/></g>
  <text x="1216" y="166" font-size="9.5" font-weight="600" fill="#4f5fb8" letter-spacing="0.5">multi-round</text>
  <!-- F programmatic -->
  <g transform="translate(1446, 152)"><use href="#iconGear"/></g>
  <text x="1470" y="166" font-size="9.5" font-weight="600" fill="#706e67" letter-spacing="0.5">programmatic</text>

  <!-- ================= PHASE COLUMNS ================= -->
  <!-- Column positions: x = 70, 324, 578, 832, 1086, 1340 — width 230, gutter 24 -->

  <!-- ===== P0 — INPUT ===== -->
  <g transform="translate(70, 184)">
    <rect width="230" height="440" rx="14" fill="white" stroke="#e8e2d8" filter="url(#cardShadow)"/>
    <!-- header -->
    <rect width="230" height="66" rx="14" fill="#4f5fb8"/>
    <rect y="52" width="230" height="14" fill="#4f5fb8"/>
    <text x="16" y="28" font-size="11" font-weight="600" fill="#e0e3f3" letter-spacing="2">PHASE 0</text>
    <text x="16" y="48" font-size="14" font-weight="600" fill="white">Input</text>
    <text x="214" y="20" text-anchor="end" font-size="10" font-weight="700" fill="#c5cdf0" font-family="ui-monospace, SF Mono, monospace">P0</text>
    <text x="214" y="48" text-anchor="end" font-size="9.5" fill="#c5cdf0">soft 2 · hard 4</text>
    <!-- sub-header band -->
    <text x="115" y="84" text-anchor="middle" font-size="10" font-weight="600" fill="#706e67" letter-spacing="1.5">PARALLEL · TWO AGENTS</text>
    <!-- swim-lanes -->
    <g transform="translate(16, 98)">
      <!-- Claude lane -->
      <rect width="198" height="46" rx="8" fill="#fbf0e0" stroke="#d4a574" stroke-width="1.2"/>
      <rect width="6" height="46" rx="3" fill="#d4a574"/>
      <text x="16" y="20" font-size="10.5" font-weight="700" fill="#7a5028" letter-spacing="0.5">CLAUDE</text>
      <text x="16" y="36" font-size="9.5" fill="#7a5028">raise · address · ratify</text>
      <!-- GPT lane -->
      <rect y="56" width="198" height="46" rx="8" fill="#e6f5f1" stroke="#7cc4b8" stroke-width="1.2"/>
      <rect y="56" width="6" height="46" rx="3" fill="#7cc4b8"/>
      <text x="16" y="76" font-size="10.5" font-weight="700" fill="#2a6e60" letter-spacing="0.5">GPT</text>
      <text x="16" y="92" font-size="9.5" fill="#2a6e60">raise · address · ratify</text>
    </g>
    <!-- body caption -->
    <text x="115" y="226" text-anchor="middle" font-size="10.5" fill="#1a1a18" font-weight="600">Negotiate the brief</text>
    <text x="115" y="242" text-anchor="middle" font-size="9.5" fill="#706e67">converge on shared interpretation</text>
    <!-- separator -->
    <line x1="16" y1="266" x2="214" y2="266" stroke="#e8e2d8"/>
    <!-- footer: categories chip cluster -->
    <text x="16" y="288" font-size="9" font-weight="600" fill="#9e9b95" letter-spacing="1.5">CATEGORIES RAISED</text>
    <g transform="translate(28, 312)"><use href="#bubQ"/></g>
    <g transform="translate(54, 312)"><use href="#bubD"/></g>
    <text x="75" y="315" font-size="9.5" fill="#706e67">Q · question, D · disagreement</text>
    <!-- emits -->
    <text x="16" y="354" font-size="9" font-weight="600" fill="#9e9b95" letter-spacing="1.5">EMITS</text>
    <g transform="translate(16, 364)">
      <rect width="198" height="22" rx="11" fill="#eaf3ee" stroke="#a8d2bb"/>
      <text x="14" y="15" font-size="10" font-weight="700" fill="#2a5e40">✓</text>
      <text x="28" y="15" font-size="10.5" font-weight="600" fill="#2a5e40">agreed interpretation</text>
    </g>
    <text x="16" y="408" font-size="9" fill="#9e9b95" font-style="italic">soft cap = nudge to close · hard cap = forced</text>
  </g>

  <!-- ===== P1 — RESEARCH PLAN ===== -->
  <g transform="translate(324, 184)">
    <rect width="230" height="440" rx="14" fill="white" stroke="#e8e2d8" filter="url(#cardShadow)"/>
    <rect width="230" height="66" rx="14" fill="#3a4a8a"/>
    <rect y="52" width="230" height="14" fill="#3a4a8a"/>
    <text x="16" y="28" font-size="11" font-weight="600" fill="#c5cdf0" letter-spacing="2">PHASE 1</text>
    <text x="16" y="48" font-size="14" font-weight="600" fill="white">Research plan</text>
    <text x="214" y="20" text-anchor="end" font-size="10" font-weight="700" fill="#c5cdf0" font-family="ui-monospace, SF Mono, monospace">P1</text>
    <text x="214" y="48" text-anchor="end" font-size="9.5" fill="#c5cdf0">1 turn each</text>
    <text x="115" y="84" text-anchor="middle" font-size="10" font-weight="600" fill="#706e67" letter-spacing="1.5">PARALLEL · TWO AGENTS</text>
    <g transform="translate(16, 98)">
      <rect width="198" height="46" rx="8" fill="#fbf0e0" stroke="#d4a574" stroke-width="1.2"/>
      <rect width="6" height="46" rx="3" fill="#d4a574"/>
      <text x="16" y="20" font-size="10.5" font-weight="700" fill="#7a5028" letter-spacing="0.5">CLAUDE</text>
      <text x="16" y="36" font-size="9.5" fill="#7a5028">independent · 1 plan</text>
      <rect y="56" width="198" height="46" rx="8" fill="#e6f5f1" stroke="#7cc4b8" stroke-width="1.2"/>
      <rect y="56" width="6" height="46" rx="3" fill="#7cc4b8"/>
      <text x="16" y="76" font-size="10.5" font-weight="700" fill="#2a6e60" letter-spacing="0.5">GPT</text>
      <text x="16" y="92" font-size="9.5" fill="#2a6e60">independent · 1 plan</text>
    </g>
    <text x="115" y="226" text-anchor="middle" font-size="10.5" fill="#1a1a18" font-weight="600">Independent research plan</text>
    <text x="115" y="242" text-anchor="middle" font-size="9.5" fill="#706e67">no interaction · agents blind</text>
    <line x1="16" y1="266" x2="214" y2="266" stroke="#e8e2d8"/>
    <text x="16" y="288" font-size="9" font-weight="600" fill="#9e9b95" letter-spacing="1.5">CATEGORIES RAISED</text>
    <text x="115" y="318" text-anchor="middle" font-size="14" fill="#c8c4bb">—</text>
    <text x="115" y="334" text-anchor="middle" font-size="9.5" fill="#9e9b95" font-style="italic">production phase</text>
    <text x="16" y="364" font-size="9" font-weight="600" fill="#9e9b95" letter-spacing="1.5">EMITS</text>
    <g transform="translate(16, 374)">
      <rect width="198" height="20" rx="10" fill="#fbf0e0" stroke="#d4a574"/>
      <text x="99" y="14" text-anchor="middle" font-size="10" font-weight="600" fill="#7a5028">Claude's research plan</text>
    </g>
    <g transform="translate(16, 400)">
      <rect width="198" height="20" rx="10" fill="#e6f5f1" stroke="#7cc4b8"/>
      <text x="99" y="14" text-anchor="middle" font-size="10" font-weight="600" fill="#2a6e60">GPT's research plan</text>
    </g>
  </g>

  <!-- ===== P2 — NEGOTIATE PLAN ===== -->
  <g transform="translate(578, 184)">
    <rect width="230" height="440" rx="14" fill="white" stroke="#e8e2d8" filter="url(#cardShadow)"/>
    <rect width="230" height="66" rx="14" fill="#4f5fb8"/>
    <rect y="52" width="230" height="14" fill="#4f5fb8"/>
    <text x="16" y="28" font-size="11" font-weight="600" fill="#e0e3f3" letter-spacing="2">PHASE 2</text>
    <text x="16" y="48" font-size="14" font-weight="600" fill="white">Negotiate plan</text>
    <text x="214" y="20" text-anchor="end" font-size="10" font-weight="700" fill="#c5cdf0" font-family="ui-monospace, SF Mono, monospace">P2</text>
    <text x="214" y="48" text-anchor="end" font-size="9.5" fill="#c5cdf0">soft 4 · hard 8</text>
    <text x="115" y="84" text-anchor="middle" font-size="10" font-weight="600" fill="#706e67" letter-spacing="1.5">PARALLEL · TWO AGENTS</text>
    <g transform="translate(16, 98)">
      <rect width="198" height="46" rx="8" fill="#fbf0e0" stroke="#d4a574" stroke-width="1.2"/>
      <rect width="6" height="46" rx="3" fill="#d4a574"/>
      <text x="16" y="20" font-size="10.5" font-weight="700" fill="#7a5028" letter-spacing="0.5">CLAUDE</text>
      <text x="16" y="36" font-size="9.5" fill="#7a5028">address · ratify · raise</text>
      <rect y="56" width="198" height="46" rx="8" fill="#e6f5f1" stroke="#7cc4b8" stroke-width="1.2"/>
      <rect y="56" width="6" height="46" rx="3" fill="#7cc4b8"/>
      <text x="16" y="76" font-size="10.5" font-weight="700" fill="#2a6e60" letter-spacing="0.5">GPT</text>
      <text x="16" y="92" font-size="9.5" fill="#2a6e60">address · ratify · raise</text>
    </g>
    <text x="115" y="226" text-anchor="middle" font-size="10.5" fill="#1a1a18" font-weight="600">Converge on plan + drafter</text>
    <text x="115" y="242" text-anchor="middle" font-size="9.5" fill="#706e67">both plans visible to both agents</text>
    <line x1="16" y1="266" x2="214" y2="266" stroke="#e8e2d8"/>
    <text x="16" y="288" font-size="9" font-weight="600" fill="#9e9b95" letter-spacing="1.5">CATEGORIES RAISED</text>
    <g transform="translate(28, 312)"><use href="#bubQ"/></g>
    <g transform="translate(54, 312)"><use href="#bubD"/></g>
    <text x="75" y="315" font-size="9.5" fill="#706e67">Q · question, D · disagreement</text>
    <text x="16" y="354" font-size="9" font-weight="600" fill="#9e9b95" letter-spacing="1.5">EMITS</text>
    <g transform="translate(16, 364)">
      <rect width="198" height="22" rx="11" fill="#eaf3ee" stroke="#a8d2bb"/>
      <text x="14" y="15" font-size="10" font-weight="700" fill="#2a5e40">✓</text>
      <text x="28" y="15" font-size="10.5" font-weight="600" fill="#2a5e40">agreed plan + drafter</text>
    </g>
    <text x="16" y="408" font-size="9" fill="#9e9b95" font-style="italic">drafter selected here · used in P3</text>
  </g>

  <!-- ===== P3 — DRAFT ===== -->
  <g transform="translate(832, 184)">
    <rect width="230" height="440" rx="14" fill="white" stroke="#e8e2d8" filter="url(#cardShadow)"/>
    <rect width="230" height="66" rx="14" fill="#252521"/>
    <rect y="52" width="230" height="14" fill="#252521"/>
    <text x="16" y="28" font-size="11" font-weight="600" fill="#c5cdf0" letter-spacing="2">PHASE 3</text>
    <text x="16" y="48" font-size="14" font-weight="600" fill="white">Draft</text>
    <text x="214" y="20" text-anchor="end" font-size="10" font-weight="700" fill="#c5cdf0" font-family="ui-monospace, SF Mono, monospace">P3</text>
    <text x="214" y="48" text-anchor="end" font-size="9.5" fill="#c5cdf0">1 turn</text>
    <text x="115" y="84" text-anchor="middle" font-size="10" font-weight="600" fill="#706e67" letter-spacing="1.5">SINGLE DRAFTER</text>
    <!-- single drafter band -->
    <g transform="translate(16, 98)">
      <rect width="198" height="102" rx="8" fill="url(#drafterGrad)" opacity="0.18"/>
      <rect width="198" height="102" rx="8" fill="none" stroke="#9b8e7b" stroke-width="1.2" stroke-dasharray="5,3"/>
      <text x="99" y="30" text-anchor="middle" font-size="11" font-weight="700" fill="#5a4a32" letter-spacing="0.5">DRAFTER</text>
      <text x="99" y="50" text-anchor="middle" font-size="9.5" fill="#5a4a32">chosen in P2</text>
      <!-- sable + sage chips inside, denoting either -->
      <g transform="translate(48, 64)">
        <rect width="44" height="22" rx="11" fill="#fbf0e0" stroke="#d4a574"/>
        <text x="22" y="15" text-anchor="middle" font-size="10" font-weight="700" fill="#7a5028">Claude</text>
      </g>
      <text x="99" y="80" text-anchor="middle" font-size="9.5" fill="#5a4a32">or</text>
      <g transform="translate(104, 64)">
        <rect width="44" height="22" rx="11" fill="#e6f5f1" stroke="#7cc4b8"/>
        <text x="22" y="15" text-anchor="middle" font-size="10" font-weight="700" fill="#2a6e60">GPT</text>
      </g>
    </g>
    <text x="115" y="226" text-anchor="middle" font-size="10.5" fill="#1a1a18" font-weight="600">Drafter writes v1</text>
    <text x="115" y="242" text-anchor="middle" font-size="9.5" fill="#706e67">other agent silent · 1 turn</text>
    <line x1="16" y1="266" x2="214" y2="266" stroke="#e8e2d8"/>
    <text x="16" y="288" font-size="9" font-weight="600" fill="#9e9b95" letter-spacing="1.5">CATEGORIES RAISED</text>
    <text x="115" y="318" text-anchor="middle" font-size="14" fill="#c8c4bb">—</text>
    <text x="115" y="334" text-anchor="middle" font-size="9.5" fill="#9e9b95" font-style="italic">production phase</text>
    <text x="16" y="364" font-size="9" font-weight="600" fill="#9e9b95" letter-spacing="1.5">EMITS</text>
    <g transform="translate(16, 374)">
      <rect width="198" height="22" rx="11" fill="#f3eef5" stroke="#d0c0db"/>
      <text x="99" y="15" text-anchor="middle" font-size="10.5" font-weight="600" fill="#5e3f72">initial unified draft (v1)</text>
    </g>
  </g>

  <!-- ===== P4 — REVIEW DRAFT ===== -->
  <g transform="translate(1086, 184)">
    <rect width="230" height="440" rx="14" fill="white" stroke="#e8e2d8" filter="url(#cardShadow)"/>
    <rect width="230" height="66" rx="14" fill="#4f5fb8"/>
    <rect y="52" width="230" height="14" fill="#4f5fb8"/>
    <text x="16" y="28" font-size="11" font-weight="600" fill="#e0e3f3" letter-spacing="2">PHASE 4</text>
    <text x="16" y="48" font-size="14" font-weight="600" fill="white">Review draft</text>
    <text x="214" y="20" text-anchor="end" font-size="10" font-weight="700" fill="#c5cdf0" font-family="ui-monospace, SF Mono, monospace">P4</text>
    <text x="214" y="48" text-anchor="end" font-size="9.5" fill="#c5cdf0">soft 4 · hard 8</text>
    <text x="115" y="84" text-anchor="middle" font-size="10" font-weight="600" fill="#706e67" letter-spacing="1.5">PARALLEL · TWO AGENTS</text>
    <g transform="translate(16, 98)">
      <rect width="198" height="46" rx="8" fill="#fbf0e0" stroke="#d4a574" stroke-width="1.2"/>
      <rect width="6" height="46" rx="3" fill="#d4a574"/>
      <text x="16" y="20" font-size="10.5" font-weight="700" fill="#7a5028" letter-spacing="0.5">CLAUDE</text>
      <text x="16" y="36" font-size="9.5" fill="#7a5028">review · revise · raise</text>
      <rect y="56" width="198" height="46" rx="8" fill="#e6f5f1" stroke="#7cc4b8" stroke-width="1.2"/>
      <rect y="56" width="6" height="46" rx="3" fill="#7cc4b8"/>
      <text x="16" y="76" font-size="10.5" font-weight="700" fill="#2a6e60" letter-spacing="0.5">GPT</text>
      <text x="16" y="92" font-size="9.5" fill="#2a6e60">review · revise · raise</text>
    </g>
    <text x="115" y="226" text-anchor="middle" font-size="10.5" fill="#1a1a18" font-weight="600">Review the draft</text>
    <text x="115" y="242" text-anchor="middle" font-size="9.5" fill="#706e67">drafter may revise mid-phase</text>
    <line x1="16" y1="266" x2="214" y2="266" stroke="#e8e2d8"/>
    <text x="16" y="288" font-size="9" font-weight="600" fill="#9e9b95" letter-spacing="1.5">CATEGORIES RAISED</text>
    <g transform="translate(28, 312)"><use href="#bubQ"/></g>
    <g transform="translate(54, 312)"><use href="#bubD"/></g>
    <g transform="translate(80, 312)"><use href="#bubI"/></g>
    <g transform="translate(106, 312)"><use href="#bubC"/></g>
    <text x="125" y="315" font-size="9" fill="#706e67">Q · D · I · C</text>
    <text x="16" y="354" font-size="9" font-weight="600" fill="#9e9b95" letter-spacing="1.5">EMITS</text>
    <g transform="translate(16, 364)">
      <rect width="198" height="22" rx="11" fill="#eaf3ee" stroke="#a8d2bb"/>
      <text x="14" y="15" font-size="10" font-weight="700" fill="#2a5e40">✓</text>
      <text x="28" y="15" font-size="10.5" font-weight="600" fill="#2a5e40">agreed acceptance + final draft</text>
    </g>
    <text x="16" y="408" font-size="9" fill="#9e9b95" font-style="italic">all four categories available here</text>
  </g>

  <!-- ===== FINALIZE ===== -->
  <g transform="translate(1340, 184)">
    <rect width="230" height="440" rx="14" fill="white" stroke="#e8e2d8" filter="url(#cardShadow)"/>
    <rect width="230" height="66" rx="14" fill="#4a5568"/>
    <rect y="52" width="230" height="14" fill="#4a5568"/>
    <text x="16" y="28" font-size="11" font-weight="600" fill="#cfd5e0" letter-spacing="2">FINALIZE</text>
    <text x="16" y="48" font-size="14" font-weight="600" fill="white">Assemble</text>
    <text x="214" y="20" text-anchor="end" font-size="10" font-weight="700" fill="#cfd5e0" font-family="ui-monospace, SF Mono, monospace">F</text>
    <text x="214" y="48" text-anchor="end" font-size="9.5" fill="#cfd5e0">no LLM call</text>
    <text x="115" y="84" text-anchor="middle" font-size="10" font-weight="600" fill="#706e67" letter-spacing="1.5">ORCHESTRATOR ONLY</text>
    <!-- single programmatic band (no swim-lanes) -->
    <g transform="translate(16, 98)">
      <rect width="198" height="102" rx="8" fill="#f0f0ec" stroke="#cfc9c0" stroke-width="1.2"/>
      <g transform="translate(86, 18)"><use href="#iconGear"/></g>
      <text x="99" y="62" text-anchor="middle" font-size="10.5" font-weight="700" fill="#4a4845" letter-spacing="0.5">PROGRAMMATIC</text>
      <text x="99" y="80" text-anchor="middle" font-size="9.5" fill="#706e67">collate body + appendix</text>
      <text x="99" y="94" text-anchor="middle" font-size="9.5" fill="#706e67">no agent invoked</text>
    </g>
    <text x="115" y="226" text-anchor="middle" font-size="10.5" fill="#1a1a18" font-weight="600">Assemble final document</text>
    <text x="115" y="242" text-anchor="middle" font-size="9.5" fill="#706e67">body + unresolved-items appendix</text>
    <line x1="16" y1="266" x2="214" y2="266" stroke="#e8e2d8"/>
    <text x="16" y="288" font-size="9" font-weight="600" fill="#9e9b95" letter-spacing="1.5">CATEGORIES RAISED</text>
    <text x="115" y="318" text-anchor="middle" font-size="14" fill="#c8c4bb">—</text>
    <text x="115" y="334" text-anchor="middle" font-size="9.5" fill="#9e9b95" font-style="italic">no agent step</text>
    <text x="16" y="364" font-size="9" font-weight="600" fill="#9e9b95" letter-spacing="1.5">EMITS</text>
    <g transform="translate(16, 374)">
      <rect width="198" height="22" rx="11" fill="#4f5fb8" stroke="#3a4a8a"/>
      <text x="99" y="15" text-anchor="middle" font-size="10.5" font-weight="600" fill="white">final.document</text>
    </g>
  </g>

  <!-- ================= INTER-PHASE ARROWS (artifact handoffs) ================= -->
  <!-- Midline y = 640 (just below each phase card bottom at 624); arrows + pills here -->

  <!-- P0 → P1 : agreed interpretation pill -->
  <g>
    <line x1="300" y1="660" x2="324" y2="660" stroke="#4f5fb8" stroke-width="1.6" marker-end="url(#arrowAccent)"/>
    <rect x="248" y="672" width="128" height="22" rx="11" fill="#eaf3ee" stroke="#a8d2bb"/>
    <text x="312" y="687" text-anchor="middle" font-size="10" font-weight="600" fill="#2a5e40">agreed interpretation</text>
  </g>

  <!-- P1 → P2 : two thin parallel arrows -->
  <g>
    <line x1="554" y1="654" x2="578" y2="654" stroke="#b8895a" stroke-width="1.4" marker-end="url(#arrowSable)"/>
    <line x1="554" y1="666" x2="578" y2="666" stroke="#5fa89c" stroke-width="1.4" marker-end="url(#arrowSage)"/>
    <text x="566" y="690" text-anchor="middle" font-size="9.5" font-weight="600" fill="#706e67" letter-spacing="0.5">two research plans</text>
  </g>

  <!-- P2 → P3 : agreed plan + drafter pill -->
  <g>
    <line x1="808" y1="660" x2="832" y2="660" stroke="#4f5fb8" stroke-width="1.6" marker-end="url(#arrowAccent)"/>
    <rect x="752" y="672" width="136" height="22" rx="11" fill="#eaf3ee" stroke="#a8d2bb"/>
    <text x="820" y="687" text-anchor="middle" font-size="10" font-weight="600" fill="#2a5e40">agreed plan + drafter</text>
  </g>

  <!-- P3 → P4 : draft v1 pill -->
  <g>
    <line x1="1062" y1="660" x2="1086" y2="660" stroke="#4f5fb8" stroke-width="1.6" marker-end="url(#arrowAccent)"/>
    <rect x="1024" y="672" width="100" height="22" rx="11" fill="#f3eef5" stroke="#d0c0db"/>
    <text x="1074" y="687" text-anchor="middle" font-size="10" font-weight="600" fill="#5e3f72">draft v1</text>
  </g>

  <!-- P4 → Finalize : agreed acceptance + final draft pill -->
  <g>
    <line x1="1316" y1="660" x2="1340" y2="660" stroke="#4f5fb8" stroke-width="1.6" marker-end="url(#arrowAccent)"/>
    <rect x="1248" y="672" width="160" height="22" rx="11" fill="#eaf3ee" stroke="#a8d2bb"/>
    <text x="1328" y="687" text-anchor="middle" font-size="10" font-weight="600" fill="#2a5e40">agreed acceptance + final draft</text>
  </g>

  <!-- Finalize → output : document icon labelled final.document -->
  <g>
    <line x1="1570" y1="404" x2="1598" y2="404" stroke="#4f5fb8" stroke-width="1.6" marker-end="url(#arrowAccent)"/>
    <g transform="translate(1608, 384)"><use href="#iconDoc"/></g>
    <text x="1624" y="446" text-anchor="middle" font-size="9.5" font-weight="600" fill="#4f5fb8" font-family="ui-monospace, SF Mono, monospace">final.document</text>
  </g>

  <!-- ================= BOTTOM LEGEND ================= -->
  <g transform="translate(70, 760)">
    <rect x="-12" y="-22" width="1544" height="64" rx="10" fill="white" stroke="#e8e2d8"/>
    <text x="0" y="-6" font-size="10" font-weight="600" fill="#9e9b95" letter-spacing="2">LEGEND</text>

    <!-- Category bubble samples -->
    <g transform="translate(0, 18)"><use href="#bubQ"/></g>
    <text x="14" y="22" font-size="10.5" fill="#1a1a18">question</text>
    <g transform="translate(96, 18)"><use href="#bubD"/></g>
    <text x="110" y="22" font-size="10.5" fill="#1a1a18">disagreement</text>
    <g transform="translate(220, 18)"><use href="#bubI"/></g>
    <text x="234" y="22" font-size="10.5" fill="#1a1a18">insight</text>
    <g transform="translate(304, 18)"><use href="#bubC"/></g>
    <text x="318" y="22" font-size="10.5" fill="#1a1a18">concern</text>

    <!-- Provider chips -->
    <g transform="translate(404, 8)">
      <rect width="60" height="22" rx="11" fill="#fbf0e0" stroke="#d4a574"/>
      <text x="30" y="15" text-anchor="middle" font-size="10" font-weight="700" fill="#7a5028">Claude</text>
    </g>
    <text x="468" y="22" font-size="10.5" fill="#1a1a18">sable agent</text>

    <g transform="translate(560, 8)">
      <rect width="48" height="22" rx="11" fill="#e6f5f1" stroke="#7cc4b8"/>
      <text x="24" y="15" text-anchor="middle" font-size="10" font-weight="700" fill="#2a6e60">GPT</text>
    </g>
    <text x="612" y="22" font-size="10.5" fill="#1a1a18">sage agent</text>

    <!-- Artifact arrow -->
    <g transform="translate(710, 18)">
      <line x1="0" y1="0" x2="22" y2="0" stroke="#4f5fb8" stroke-width="1.6" marker-end="url(#arrowAccent)"/>
    </g>
    <text x="738" y="22" font-size="10.5" fill="#1a1a18">artifact handoff</text>

    <!-- Multi-round loop -->
    <g transform="translate(854, 12)"><use href="#iconLoop"/></g>
    <text x="876" y="22" font-size="10.5" fill="#1a1a18">multi-round (negotiating)</text>

    <!-- One-shot -->
    <g transform="translate(1054, 12)"><use href="#iconArrow"/></g>
    <text x="1078" y="22" font-size="10.5" fill="#1a1a18">one-shot (production)</text>

    <!-- Gear -->
    <g transform="translate(1240, 12)"><use href="#iconGear"/></g>
    <text x="1262" y="22" font-size="10.5" fill="#1a1a18">programmatic (no LLM)</text>
  </g>

  <!-- ================= FOOTER ================= -->
  <text x="70" y="884" font-size="11" fill="#4a4845">
    <tspan font-weight="600" fill="#1a1a18">Read left → right.</tspan>
    <tspan> Every phase consumes the user prompt. Multi-round phases negotiate to an explicit agreement (the green pill). One-shot phases produce in a single turn. Finalize is mechanical assembly.</tspan>
  </text>
  <text x="70" y="908" font-size="10.5" fill="#706e67">
    Round caps: <tspan font-weight="600" fill="#1a1a18">soft</tspan> nudges the agents to close · <tspan font-weight="600" fill="#1a1a18">hard</tspan> forces termination. P3's drafter is chosen during P2 and may be either agent.
  </text>

</svg>
